<svg width="30" height="30" viewBox="0 0 30 30" fill="none" xmlns="http://www.w3.org/2000/svg">
<path d="M12.3395 12.1043C13.5822 12.104 14.797 11.7489 15.8301 11.0838C16.8633 10.4187 17.6685 9.47345 18.1439 8.36762C18.6193 7.26179 18.7436 6.04502 18.5009 4.87119C18.2583 3.69735 17.6597 2.61916 16.7809 1.77295C15.902 0.926742 14.7824 0.350517 13.5635 0.117139C12.3446 -0.116238 11.0813 0.0037147 9.93316 0.461828C8.78506 0.919942 7.80379 1.69564 7.11343 2.69084C6.42307 3.68604 6.05463 4.85605 6.05469 6.05292C6.05653 7.65754 6.71931 9.19592 7.89758 10.3304C9.07585 11.4649 10.6733 12.1029 12.3395 12.1043ZM12.3395 1.01836C13.3733 1.01859 14.3838 1.31403 15.2432 1.86733C16.1026 2.42063 16.7724 3.20694 17.1679 4.12683C17.5634 5.04673 17.6667 6.0589 17.4649 7.03537C17.2631 8.01184 16.7652 8.90875 16.0341 9.6127C15.3031 10.3167 14.3717 10.796 13.3578 10.9902C12.3439 11.1844 11.2929 11.0847 10.3378 10.7037C9.38275 10.3226 8.56642 9.67743 7.99206 8.84961C7.41771 8.02179 7.11112 7.04854 7.11106 6.05292C7.11281 4.71814 7.66429 3.43855 8.64449 2.49492C9.62469 1.55128 10.9535 1.02067 12.3395 1.01952V1.01836Z" fill="#4D4F5C"/>
<path d="M11.2773 7.58627C11.2773 7.45136 11.2216 7.32197 11.1226 7.22657C11.0235 7.13117 10.8892 7.07758 10.7491 7.07758C10.609 7.07758 10.4747 7.13117 10.3756 7.22657C10.2766 7.32197 10.2209 7.45136 10.2209 7.58627C10.2215 8.03907 10.3783 8.47886 10.6665 8.83661C10.9547 9.19436 11.3581 9.44981 11.8133 9.56289V9.96344C11.8133 10.0984 11.869 10.2277 11.968 10.3231C12.0671 10.4185 12.2014 10.4721 12.3415 10.4721C12.4816 10.4721 12.6159 10.4185 12.715 10.3231C12.814 10.2277 12.8697 10.0984 12.8697 9.96344V9.56201C13.3253 9.44974 13.7291 9.19463 14.0174 8.83689C14.3058 8.47915 14.4623 8.03915 14.4623 7.58627C14.4623 7.13338 14.3058 6.69338 14.0174 6.33565C13.7291 5.97791 13.3253 5.72279 12.8697 5.61052V3.63536C13.032 3.72427 13.1671 3.85288 13.2613 4.0082C13.3555 4.16352 13.4054 4.34003 13.406 4.5199C13.406 4.65481 13.4617 4.78419 13.5607 4.87959C13.6598 4.97499 13.7941 5.02858 13.9342 5.02858C14.0743 5.02858 14.2086 4.97499 14.3077 4.87959C14.4067 4.78419 14.4624 4.65481 14.4624 4.5199C14.4617 4.06707 14.3049 3.62727 14.0167 3.26953C13.7284 2.91179 13.325 2.65634 12.8697 2.54328V2.14272C12.8697 2.00781 12.814 1.87842 12.715 1.78302C12.6159 1.68763 12.4816 1.63403 12.3415 1.63403C12.2014 1.63403 12.0671 1.68763 11.968 1.78302C11.869 1.87842 11.8133 2.00781 11.8133 2.14272V2.54299C11.3578 2.65526 10.954 2.91037 10.6656 3.26811C10.3772 3.62585 10.2207 4.06585 10.2207 4.51873C10.2207 4.97162 10.3772 5.41162 10.6656 5.76935C10.954 6.12709 11.3578 6.38221 11.8133 6.49448V8.47109C11.651 8.38213 11.5159 8.25345 11.4218 8.09808C11.3277 7.94271 11.2778 7.76615 11.2773 7.58627ZM13.4057 7.58627C13.4051 7.7661 13.3553 7.9426 13.2611 8.09791C13.167 8.25323 13.032 8.38186 12.8697 8.4708V6.70173C13.0318 6.79079 13.1667 6.91947 13.2606 7.07477C13.3546 7.23008 13.4043 7.40652 13.4048 7.58627H13.4057ZM11.2773 4.51844C11.2781 4.33898 11.3279 4.16287 11.4218 4.00785C11.5157 3.85282 11.6503 3.72435 11.8121 3.63536V5.40443C11.6499 5.31515 11.515 5.18621 11.4211 5.03064C11.3272 4.87507 11.2776 4.69839 11.2773 4.51844Z" fill="#4D4F5C"/>
<path d="M29.8923 25.9886C29.8153 25.7956 29.6996 25.6191 29.5517 25.4692C29.4038 25.3193 29.2267 25.1989 29.0305 25.115C28.8342 25.0311 28.6227 24.9853 28.4081 24.9801C28.1935 24.975 27.9799 25.0107 27.7796 25.0852C27.0077 25.3642 26.2186 25.5972 25.4169 25.7828C25.1546 24.9686 24.9366 24.1418 24.7638 23.3057C24.859 23.2112 24.9123 23.0847 24.9123 22.9531V20.8236C24.9123 20.7567 24.8987 20.6906 24.8722 20.6288C24.8456 20.5671 24.8067 20.511 24.7577 20.4638C24.7086 20.4165 24.6504 20.3791 24.5863 20.3535C24.5222 20.328 24.4535 20.3148 24.3841 20.3149H24.2697C24.1454 19.3173 24.053 18.2819 23.9939 17.2226H24.3841C24.5242 17.2226 24.6585 17.169 24.7576 17.0736C24.8567 16.9782 24.9123 16.8488 24.9123 16.7139V14.5862C24.9123 14.5194 24.8987 14.4532 24.8722 14.3915C24.8456 14.3297 24.8067 14.2736 24.7577 14.2264C24.7086 14.1791 24.6504 14.1417 24.5863 14.1161C24.5222 14.0906 24.4535 14.0774 24.3841 14.0775H23.9178C23.9504 9.39231 24.6298 4.95015 25.7523 2.14016C25.9077 1.75051 25.8962 1.31738 25.7203 0.935887C25.5444 0.554389 25.2185 0.255702 24.8142 0.105407C24.6139 0.0310085 24.4004 -0.00464484 24.1858 0.000484324C23.9712 0.00561349 23.7597 0.0514246 23.5635 0.135299C23.3673 0.219174 23.1902 0.339468 23.0423 0.489305C22.8943 0.639142 22.7785 0.815584 22.7015 1.00855C21.4239 4.20602 20.6814 8.9531 20.6491 14.0766H4.93004C4.23043 14.0774 3.55971 14.3454 3.06501 14.8218C2.57031 15.2983 2.29203 15.9442 2.29124 16.618V16.7131C2.29124 16.848 2.34688 16.9774 2.44594 17.0728C2.54499 17.1682 2.67934 17.2218 2.81942 17.2218H6.04164C5.98128 18.3127 5.8847 19.3803 5.75461 20.4082C5.19842 20.5562 4.70789 20.8756 4.35802 21.3176C4.00816 21.7595 3.81821 22.2997 3.81723 22.8554V22.9507C3.81723 23.0857 3.87288 23.215 3.97194 23.3104C4.07099 23.4058 4.20534 23.4594 4.34542 23.4594H5.24061C5.05771 24.3044 4.85036 25.0808 4.62128 25.7805C3.8198 25.5949 3.03096 25.3619 2.25924 25.0829C2.05781 25.0025 1.84171 24.9617 1.62367 24.963C1.40564 24.9643 1.19007 25.0076 0.989689 25.0904C0.789305 25.1732 0.608154 25.2938 0.456913 25.445C0.305672 25.5963 0.1874 25.7752 0.109068 25.9712C0.0307359 26.1671 -0.00607148 26.3762 0.000815109 26.5861C0.00770169 26.796 0.0581427 27.0025 0.149166 27.1933C0.240189 27.3841 0.369952 27.5554 0.530808 27.6972C0.691663 27.839 0.880357 27.9483 1.08577 28.0187C4.48063 29.2794 9.55935 30 15.0196 30C20.4798 30 25.5579 29.2782 28.9543 28.0202C29.3578 27.8699 29.6831 27.5717 29.8589 27.191C30.0347 26.8102 30.0467 26.3779 29.8923 25.9886ZM21.4628 23.4597C21.6535 24.4439 21.896 25.418 22.1896 26.3784C19.8143 26.7 17.4182 26.8588 15.0196 26.8537C12.6208 26.859 10.2247 26.7004 7.84924 26.379C8.14254 25.4184 8.38471 24.4441 8.57481 23.4597H21.4628ZM23.2435 26.2159C22.9599 25.3094 22.7246 24.3894 22.5385 23.4597H23.7201C23.8967 24.3192 24.1183 25.1696 24.3841 26.0075C24.0138 26.0822 23.6329 26.1514 23.2423 26.2165L23.2435 26.2159ZM23.2085 20.3152H22.0396C21.9216 19.3155 21.834 18.2804 21.7785 17.2229H22.9372C22.9954 18.2801 23.0857 19.3152 23.2073 20.3149L23.2085 20.3152ZM14.4443 20.3152V17.2226H15.5969V20.3149L14.4443 20.3152ZM9.06165 20.3152C9.17724 19.3143 9.26266 18.2804 9.31729 17.2229H13.3867V20.3149L9.06165 20.3152ZM16.6521 17.2226H20.7206C20.7753 18.2784 20.861 19.3135 20.9766 20.3149H16.6521V17.2226ZM23.6884 1.37509C23.7157 1.30694 23.7566 1.24462 23.8089 1.1917C23.8612 1.13878 23.9238 1.0963 23.9931 1.06667C24.0624 1.03705 24.1371 1.02087 24.2129 1.01905C24.2888 1.01723 24.3642 1.02981 24.435 1.05607C24.5057 1.08234 24.5704 1.12177 24.6254 1.17211C24.6803 1.22246 24.7245 1.28273 24.7552 1.3495C24.786 1.41626 24.8028 1.48821 24.8047 1.56123C24.8066 1.63425 24.7935 1.70691 24.7662 1.77507C23.6 4.69494 22.8949 9.27459 22.8614 14.0778H21.7061C21.7384 9.07489 22.4555 4.46065 23.6884 1.37509ZM4.93004 15.0951H23.8571V16.2055H21.2232C21.2159 16.2055 21.209 16.2038 21.2011 16.2055C21.1978 16.2055 21.1945 16.2055 21.1909 16.2055H3.40676C3.50079 15.8861 3.70035 15.6049 3.97522 15.4044C4.25009 15.204 4.58529 15.0953 4.93004 15.0949V15.0951ZM8.25881 17.2226C8.20327 18.2804 8.11605 19.3155 7.99834 20.3149H6.8303C6.95103 19.3141 7.04157 18.2801 7.10012 17.2226H8.25881ZM6.45604 21.3322H23.8571V22.4423H4.93276C5.02681 22.123 5.2264 21.8418 5.50128 21.6415C5.77615 21.4412 6.11134 21.3326 6.45604 21.3322ZM6.31751 23.4597H7.49943C7.31408 24.3894 7.07936 25.3094 6.79619 26.2159C6.40564 26.1508 6.02384 26.0816 5.65441 26.0075C5.92015 25.1696 6.14146 24.3193 6.31751 23.4597ZM28.5749 27.0708C25.2947 28.2867 20.3539 28.9826 15.0196 28.9826C9.68521 28.9826 4.74382 28.285 1.46455 27.0702C1.39376 27.0441 1.32901 27.0047 1.27401 26.9544C1.21901 26.9042 1.17483 26.8439 1.144 26.7772C1.11317 26.7105 1.09629 26.6385 1.09433 26.5655C1.09236 26.4925 1.10535 26.4199 1.13255 26.3517C1.1877 26.214 1.29734 26.103 1.43739 26.043C1.57744 25.9831 1.73646 25.9791 1.87955 26.0319C4.98528 27.183 9.89739 27.8699 15.0196 27.8699C18.4511 27.8945 21.8752 27.5582 25.231 26.8671H25.2371C26.2301 26.6547 27.2066 26.3762 28.1596 26.0334C28.2304 26.0072 28.3058 25.9946 28.3816 25.9965C28.4575 25.9984 28.5322 26.0146 28.6014 26.0443C28.6707 26.074 28.7333 26.1166 28.7855 26.1696C28.8377 26.2226 28.8785 26.2849 28.9057 26.3531C28.9603 26.4907 28.9562 26.6434 28.8942 26.778C28.8322 26.9126 28.7174 27.0181 28.5749 27.0714V27.0708Z" fill="#4D4F5C"/>
</svg>
