<svg width="30" height="30" viewBox="0 0 30 30" fill="none" xmlns="http://www.w3.org/2000/svg">
<path d="M8.07617 1.97062C8.31893 1.97062 8.51563 1.74452 8.51563 1.46564V0.504976C8.51563 0.226094 8.31893 0 8.07617 0C7.83342 0 7.63672 0.226094 7.63672 0.504976V1.46557C7.63672 1.74452 7.83348 1.97062 8.07617 1.97062Z" fill="#4D4F5C"/>
<path d="M7.63672 9.33823V10.2988C7.63672 10.5777 7.83342 10.8038 8.07617 10.8038C8.31893 10.8038 8.51563 10.5777 8.51563 10.2988V9.33823C8.51563 9.05935 8.31893 8.83325 8.07617 8.83325C7.83342 8.83325 7.63672 9.05935 7.63672 9.33823Z" fill="#4D4F5C"/>
<path d="M5.34297 2.97553C5.51441 3.17268 5.79267 3.17281 5.96447 2.97553C6.13609 2.77832 6.13609 2.45857 5.96441 2.26136L5.37326 1.58214C5.2017 1.38486 4.92344 1.38493 4.75176 1.58214C4.58013 1.77935 4.58013 2.0991 4.75181 2.29631L5.34297 2.97553Z" fill="#4D4F5C"/>
<path d="M10.8089 7.82833C10.6372 7.63112 10.359 7.63112 10.1873 7.82833C10.0157 8.02554 10.0157 8.34529 10.1873 8.5425L10.7785 9.22179C10.9501 9.419 11.2283 9.419 11.4 9.22179C11.5717 9.02458 11.5716 8.70483 11.4 8.50762L10.8089 7.82833Z" fill="#4D4F5C"/>
<path d="M3.81445 5.90692H4.65047C4.89322 5.90692 5.08992 5.68083 5.08992 5.40195C5.08992 5.12307 4.89322 4.89697 4.65047 4.89697H3.81445C3.5717 4.89697 3.375 5.12307 3.375 5.40195C3.375 5.68083 3.5717 5.90692 3.81445 5.90692Z" fill="#4D4F5C"/>
<path d="M11.0625 5.40195C11.0625 5.68083 11.2592 5.90692 11.502 5.90692H12.338C12.5807 5.90692 12.7774 5.68083 12.7774 5.40195C12.7774 5.12307 12.5807 4.89697 12.338 4.89697H11.502C11.2593 4.89697 11.0625 5.12307 11.0625 5.40195Z" fill="#4D4F5C"/>
<path d="M5.34149 7.82833L4.75034 8.50762C4.47254 8.82683 4.67323 9.36972 5.06112 9.36972C5.17356 9.36972 5.28606 9.32043 5.3719 9.22179L5.96305 8.5425C6.13467 8.34529 6.13467 8.02554 5.96305 7.82833C5.79137 7.63112 5.51317 7.63112 5.34149 7.82833Z" fill="#4D4F5C"/>
<path d="M10.8089 2.97553L11.4 2.29631C11.5717 2.0991 11.5717 1.77941 11.4001 1.58214C11.2285 1.38493 10.9502 1.38486 10.7786 1.58214L10.1874 2.26136C10.0157 2.45857 10.0157 2.77826 10.1873 2.97553C10.3589 3.17274 10.6373 3.17281 10.8089 2.97553Z" fill="#4D4F5C"/>
<path d="M29.9988 28.3238C29.9664 27.3967 29.2143 26.6416 28.372 26.8003C28.0336 26.0566 29.5125 29.448 23.4372 15.4858L21.3547 10.6999C20.9415 9.7501 19.7624 9.75327 19.3505 10.6999C19.1639 11.129 17.9458 13.9283 17.6933 14.5084L15.2015 8.78156C14.8265 7.91933 13.7545 7.91933 13.3794 8.78156L11.3366 13.4763C11.2502 13.6748 11.0028 13.6763 10.9158 13.4763C10.5406 12.6141 9.46876 12.6142 9.09364 13.4763L5.78942 21.0704L5.69989 20.8645C5.42291 20.2281 4.63659 20.2346 4.36248 20.8645V20.8644C4.36248 20.8645 4.36248 20.8644 4.36248 20.8645L0.826817 28.99H0.439453C0.196699 28.99 0 29.2161 0 29.495C0 29.7739 0.196699 30 0.439453 30C0.914005 30 22.0994 30 22.5726 30C22.8153 30 23.012 29.7739 23.012 29.495C23.012 29.2161 22.8153 28.99 22.5726 28.99H17.7045C17.5081 28.99 17.3503 28.8058 17.3529 28.5801C17.3557 28.3588 17.5344 28.1568 17.7431 28.1845C18.0779 28.2292 18.3783 27.9762 18.4413 27.5959C18.5163 27.1451 18.8609 26.8183 19.2602 26.8183C19.554 26.8183 19.8342 26.9997 19.985 27.304C20.1296 27.5958 20.424 27.7447 20.7017 27.6747C20.7656 27.6586 20.9127 27.5841 21.1149 27.659C21.6287 27.8495 21.7269 27.3186 22.2224 27.4318C22.5676 27.5109 22.8997 27.242 22.9459 26.8444C23.0364 26.0666 23.6198 25.4801 24.303 25.4801C24.7963 25.4801 25.2537 25.7882 25.4966 26.2841C25.6376 26.5719 25.9063 26.737 26.1802 26.723C26.2433 26.7198 26.3069 26.7071 26.3691 26.6841C26.8906 26.4919 27.4324 26.8103 27.6318 27.3635C27.7652 27.7334 28.1182 27.9268 28.453 27.8131C28.7827 27.7012 29.1076 27.9906 29.1206 28.3642C29.1327 28.7085 28.8944 28.99 28.5985 28.99H24.6235C24.3808 28.99 24.1841 29.2161 24.1841 29.495C24.1841 29.7739 24.3808 30 24.6235 30H28.5985C29.3939 30 30.0308 29.2422 29.9988 28.3238ZM20.1367 11.1515C20.2259 10.9466 20.4798 10.9474 20.5686 11.1515C20.7381 11.5411 22.019 14.4849 22.5109 15.6154L20.962 17.434C20.9244 17.478 20.8634 17.4809 20.8229 17.4409L19.8842 16.5127C19.465 16.0981 18.8313 16.1632 18.4827 16.6571L17.9794 17.3705C17.9426 17.4227 17.875 17.4289 17.8314 17.3826L17.5538 17.0875C19.2959 13.0838 19.251 13.1871 20.1367 11.1515ZM5.0311 21.5861L6.23063 24.3429L5.5926 25.092L4.88918 24.3965C4.57553 24.0864 4.13502 24.0907 3.8308 24.3444L5.0311 21.5861ZM1.80955 28.99L3.09328 26.0397C3.72311 26.2209 4.00535 25.6477 4.33483 25.1807L5.03655 25.8746C5.37756 26.2118 5.89084 26.1858 6.20502 25.8171L6.64653 25.2987L8.25276 28.99H1.80955ZM11.3921 28.99H9.23544L6.28073 22.1995L9.87991 13.928C9.93165 13.8092 10.078 13.8091 10.1298 13.9281C10.5405 14.872 11.7125 14.871 12.1229 13.9281L14.1656 9.23321C14.2174 9.11437 14.3637 9.11437 14.4154 9.23321L17.2021 15.6376C16.9531 16.2096 11.8725 27.886 11.3921 28.99ZM26.6323 25.6187C26.4893 25.623 26.3478 25.6455 26.2097 25.6862C25.7987 24.9307 25.0764 24.4701 24.3031 24.4701C23.2718 24.4701 22.379 25.284 22.1263 26.4076C21.8371 26.4002 21.5457 26.4851 21.2862 26.6656C21.0826 26.6077 20.8678 26.6009 20.6613 26.6458C20.3425 26.1251 19.8194 25.8083 19.2603 25.8083C18.5098 25.8083 17.8541 26.3703 17.6295 27.1746C16.9981 27.2186 16.4833 27.8194 16.4741 28.5657V28.5658C16.4724 28.7043 16.4918 28.8602 16.5246 28.9899H12.3749L17.1445 18.0282L17.2347 18.124C17.2347 18.124 17.2347 18.124 17.2347 18.124C17.6502 18.5656 18.3058 18.5118 18.6624 18.0065L19.1656 17.2932C19.202 17.2417 19.2674 17.2351 19.311 17.2781L20.2498 18.2064C20.6407 18.5929 21.2296 18.5639 21.5903 18.1404L22.9269 16.5711L26.8679 25.6283C26.7907 25.6196 26.7107 25.6164 26.6323 25.6187Z" fill="#4D4F5C"/>
<path d="M8.07465 8.42337C9.04971 8.42337 9.93987 7.8079 10.3978 6.81728C10.5116 6.57098 10.4301 6.26524 10.2158 6.13435C10.0014 6.00346 9.73543 6.09718 9.62147 6.34341C9.31649 7.00338 8.72375 7.41328 8.07465 7.41328C7.10949 7.41328 6.32428 6.51099 6.32428 5.40193C6.32428 4.29287 7.10949 3.39058 8.07465 3.39058C8.72375 3.39058 9.31643 3.80048 9.62147 4.46045C9.73526 4.70668 10.0013 4.8004 10.2158 4.66951C10.4301 4.53869 10.5116 4.23301 10.3978 3.98659C9.93993 2.99589 9.04971 2.38049 8.07465 2.38049C6.62486 2.38049 5.44531 3.73585 5.44531 5.40186C5.44531 7.06788 6.62486 8.42337 8.07465 8.42337Z" fill="#4D4F5C"/>
</svg>
