<svg width="30" height="25" viewBox="0 0 30 25" fill="none" xmlns="http://www.w3.org/2000/svg">
<path d="M23.5357 2.29456C23.1731 2.29456 22.8789 2.51331 22.8789 2.78284C22.8789 3.05237 23.1731 3.27112 23.5357 3.27112C23.8982 3.27112 24.1925 3.05237 24.1925 2.78284C24.1925 2.51331 23.8984 2.29456 23.5357 2.29456Z" fill="#4D4F5C"/>
<path d="M24.1374 0.390565C20.0184 -0.591367 16.5761 0.507459 14.9979 1.18456C13.4198 0.507313 9.97806 -0.591563 5.85808 0.390565C0.401993 1.69169 -2.15601 7.61463 2.21868 12.3937C4.29131 14.657 4.56808 16.4028 4.86107 18.251C5.07558 19.604 5.29738 21.0031 6.22385 22.6387C6.84688 23.7383 7.72757 24.9962 9.03058 24.9961C9.04234 24.9961 9.05435 24.996 9.06618 24.9958C10.114 24.9774 10.9583 24.2048 11.8037 22.4907C12.2344 21.6169 12.5103 20.5859 12.7772 19.5889C13.2575 17.7943 13.7542 15.9385 15.0026 15.932C15.0048 15.932 15.007 15.932 15.0092 15.932C16.2439 15.932 16.7395 17.7884 17.2189 19.5836C17.4858 20.5837 17.762 21.6181 18.1925 22.4908C19.039 24.2076 19.8833 24.9813 20.9301 24.9997C20.942 24.9999 20.9538 25 20.9656 25C22.266 25 23.1479 23.7401 23.7719 22.6387C24.6572 21.0756 24.8891 19.68 25.1134 18.3304C25.4292 16.4301 25.7274 14.6353 27.7819 12.3885C32.2078 7.54773 29.502 1.66903 24.1374 0.390565ZM26.6954 11.8395C24.4626 14.2814 24.1307 16.2789 23.8096 18.2107C23.5865 19.5533 23.3757 20.8214 22.5611 22.2596C21.5946 23.9656 21.0341 24.0234 20.9632 24.0234C20.9624 24.0234 20.9618 24.0234 20.9611 24.0234C20.9358 24.023 20.3315 23.9914 19.4259 22.1545C19.0305 21.3532 18.7645 20.3569 18.5073 19.3934C18.2186 18.3119 17.9459 17.2902 17.4964 16.4928C16.9213 15.4726 16.0853 14.9554 15.0114 14.9554C15.0054 14.9554 14.9993 14.9554 14.9933 14.9554C13.9149 14.9611 13.0758 15.4822 12.4995 16.5046C12.0502 17.3016 11.7775 18.3201 11.489 19.3983C11.2319 20.3588 10.9661 21.3522 10.5706 22.1546C9.66655 23.9876 9.06079 24.0191 9.03544 24.0195C8.97659 24.0203 8.40952 23.9803 7.43471 22.2597C6.58042 20.7515 6.37905 19.4815 6.16592 18.1368C5.86728 16.253 5.55845 14.3052 3.30488 11.8443C-0.638824 7.53616 1.73836 2.39876 6.25945 1.32059C10.191 0.383338 13.4357 1.60087 14.6482 2.16791C14.8619 2.26786 15.1338 2.26791 15.3475 2.16795C16.5604 1.60106 19.806 0.383631 23.7365 1.32064C28.3471 2.41932 30.5594 7.61345 26.6954 11.8395Z" fill="#4D4F5C"/>
<path d="M26.8932 5.05503C26.6799 4.59463 26.3972 4.171 26.0529 3.79586C25.8485 3.573 25.4399 3.51563 25.1403 3.66763C24.8406 3.81959 24.7634 4.12335 24.9678 4.34615C25.2461 4.64942 25.4761 4.99498 25.6513 5.3731C26.3058 6.7854 26.135 8.4333 25.1827 9.89428C25.0245 10.137 25.1609 10.429 25.4874 10.5466C25.8139 10.6643 26.2067 10.5628 26.3648 10.3202C27.4675 8.62861 27.6601 6.70952 26.8932 5.05503Z" fill="#4D4F5C"/>
<path d="M12.6113 6.67939L9.96728 6.02417L9.08593 4.0585C8.99654 3.85913 8.74552 3.72461 8.46283 3.72461C8.18015 3.72461 7.92919 3.85908 7.83974 4.0585L6.95839 6.02417L4.31435 6.67939C4.04618 6.74585 3.86523 6.93247 3.86523 7.14262C3.86523 7.35278 4.04611 7.53935 4.31435 7.60585L6.95839 8.26108L7.83974 10.2267C7.92913 10.4261 8.18015 10.5606 8.46283 10.5606C8.74552 10.5606 8.99648 10.4262 9.08593 10.2267L9.96728 8.26108L12.6113 7.60585C12.8795 7.5394 13.0604 7.35278 13.0604 7.14262C13.0604 6.93247 12.8796 6.74589 12.6113 6.67939ZM9.24034 7.41181C9.04422 7.46039 8.89027 7.5748 8.82492 7.72065L8.46283 8.52826L8.10075 7.72065C8.03539 7.57485 7.88151 7.46039 7.68533 7.41181L6.59899 7.14262L7.68533 6.87343C7.88144 6.82485 8.03539 6.71044 8.10075 6.5646L8.46283 5.75698L8.82492 6.5646C8.89027 6.7104 9.04416 6.82485 9.24034 6.87343L10.3267 7.14262L9.24034 7.41181Z" fill="#4D4F5C"/>
</svg>
