<svg width="30" height="26" viewBox="0 0 30 26" fill="none" xmlns="http://www.w3.org/2000/svg">
<path d="M7.13053 21.1619C3.09072 17.6788 0.0880201 13.2355 0.00112545 7.9781C-0.0746364 3.39429 3.68433 -0.217463 8.34078 0.0102007C11.1683 0.148582 13.7067 1.75275 15 4.20829C16.2933 1.75275 18.8318 0.148582 21.6593 0.0102007C23.6155 -0.0854261 25.518 0.509312 27.0179 1.68536C27.2071 1.83368 27.2372 2.10347 27.0851 2.28804C26.933 2.47261 26.6565 2.50187 26.4673 2.3536C25.1354 1.30942 23.4437 0.781903 21.7033 0.866441C19.1467 0.991562 16.8557 2.46495 15.7243 4.71158C15.5877 4.98285 15.3102 5.1513 15 5.1513C15 5.1513 15 5.1513 14.9999 5.1513C14.6898 5.1513 14.4122 4.9828 14.2756 4.71158C13.1442 2.46495 10.8532 0.991619 8.29666 0.866441C4.13879 0.664156 0.812474 3.88683 0.879857 7.96426C0.962709 12.9773 3.87271 17.2088 7.71248 20.5195C7.89436 20.6762 7.91147 20.9472 7.75074 21.1246C7.58985 21.3022 7.31211 21.3185 7.13053 21.1619Z" fill="#4D4F5C"/>
<path d="M14.0195 25.7666C12.994 25.2465 10.9446 24.1256 8.74268 22.4623C8.55078 22.3173 8.51569 22.0481 8.66428 21.8609C8.81287 21.6738 9.08891 21.6394 9.28081 21.7844C11.4283 23.4066 13.4256 24.499 14.425 25.0058C14.7848 25.1883 15.2145 25.1883 15.5743 25.0058C22.349 21.5701 28.9958 15.4597 29.1197 7.96419C29.1453 6.41467 28.684 4.94603 27.7855 3.71706C27.6446 3.52432 27.6905 3.25658 27.8881 3.11912C28.0857 2.98171 28.3601 3.02641 28.501 3.21926C29.5093 4.59845 30.0271 6.244 29.9985 7.97803C29.869 15.8163 23.0557 22.1782 15.9797 25.7666C15.3661 26.0778 14.6334 26.0778 14.0195 25.7666Z" fill="#4D4F5C"/>
</svg>
