<svg width="30" height="30" viewBox="0 0 30 30" fill="none" xmlns="http://www.w3.org/2000/svg">
<path d="M29.8778 12.7296L24.8566 6.1189C24.6707 5.8744 24.3318 5.81409 24.0747 5.97971L20.8328 8.0693H16.6047C16.55 8.0693 16.4955 8.08113 16.4429 8.09668L13.1646 9.05309L9.76298 8.11013L6.4577 5.97971C6.20502 5.81687 5.87222 5.87208 5.68431 6.10823L0.130496 13.0803C-0.0690884 13.3309 -0.0361294 13.6967 0.204654 13.9066L3.11557 16.4455L5.72711 20.0123C4.96333 20.8369 4.97821 22.1376 5.77289 22.9432C6.12514 23.3 6.57306 23.5016 7.0338 23.5484C7.01778 23.6542 7.00954 23.7616 7.00954 23.8707C7.00954 24.4334 7.22583 24.9625 7.61836 25.3604C8.01112 25.7584 8.5332 25.9776 9.08847 25.9776C9.09602 25.9776 9.10335 25.9772 9.11067 25.9769C9.11044 25.9913 9.10975 26.0055 9.10975 26.0199C9.10975 26.5826 9.32605 27.1117 9.71858 27.5098C10.1113 27.9076 10.6334 28.1268 11.1887 28.1268C11.2983 28.1268 11.4068 28.1178 11.5132 28.1011C11.5583 28.5697 11.7577 29.0257 12.1111 29.3839C12.5162 29.7947 13.0486 30 13.581 30C14.1133 30 14.6457 29.7947 15.0511 29.3839L15.369 29.0617L15.5024 29.1707C15.9043 29.5653 16.4262 29.7625 16.948 29.7625C17.4804 29.7625 18.0128 29.5572 18.4179 29.1463C18.8315 28.7272 19.0341 28.1739 19.0256 27.6235C19.5685 27.6318 20.1146 27.4268 20.5282 27.0078C20.9413 26.5889 21.1439 26.0361 21.1359 25.4859C21.7015 25.4949 22.238 25.2748 22.6383 24.8691C23.0519 24.4499 23.2544 23.8966 23.2459 23.3462C23.7893 23.3545 24.335 23.1495 24.7486 22.7303C25.4544 22.0149 25.5453 20.9091 25.0218 20.0928L26.9287 16.0454L29.7954 13.5452C30.0323 13.3385 30.0685 12.9803 29.8778 12.7296ZM6.26956 7.27156L8.64627 8.80326L3.47606 15.1871L1.40422 13.3798L6.26956 7.27156ZM6.60487 20.8066L7.32219 20.0796C7.34393 20.0575 7.36682 20.0366 7.39017 20.0172C7.53047 19.9012 7.7003 19.832 7.8802 19.8156C7.88524 19.8151 7.8905 19.8151 7.89554 19.8149C7.92117 19.8128 7.94681 19.8114 7.97267 19.8116C8.21849 19.8151 8.44691 19.9169 8.61629 20.0981C8.94862 20.4542 8.93077 21.036 8.57646 21.3951L7.88089 22.1C7.5291 22.4566 6.95666 22.4566 6.60487 22.1C6.25308 21.7433 6.25308 21.1631 6.60487 20.8066ZM8.45035 24.5172C8.27983 24.3446 8.18599 24.1149 8.18599 23.8707C8.18599 23.6264 8.27983 23.3967 8.45035 23.2239L9.84126 21.8142C10.1077 21.5442 10.5265 21.4702 10.8671 21.6347C11.2182 21.8043 11.4157 22.1905 11.3642 22.579C11.3368 22.7864 11.2416 22.9817 11.0955 23.13L9.72659 24.5172C9.55607 24.69 9.32948 24.7851 9.08847 24.7851C8.84746 24.7851 8.62086 24.69 8.45035 24.5172ZM10.5506 26.6664C10.38 26.4938 10.2862 26.2641 10.2862 26.0199C10.2862 25.7756 10.38 25.5459 10.5506 25.3731L11.9412 23.9634C12.2262 23.6749 12.6833 23.6127 13.0321 23.8185C13.3507 24.0064 13.5176 24.3752 13.4629 24.7426C13.4329 24.9447 13.3381 25.1347 13.1955 25.2792L11.8268 26.6664C11.6563 26.8392 11.4297 26.9343 11.1887 26.9343C10.9477 26.9343 10.7211 26.8392 10.5506 26.6664ZM12.9428 28.5407C12.591 28.1841 12.591 27.604 12.9428 27.2474L13.6602 26.5204C13.6819 26.4984 13.7046 26.4778 13.7279 26.4583C13.7286 26.4578 13.729 26.4573 13.7295 26.4569C13.8462 26.3609 13.9833 26.2966 14.1296 26.2685C14.133 26.2681 14.1365 26.2676 14.1399 26.2671C14.1651 26.2625 14.1907 26.2588 14.2163 26.2565C14.2266 26.2555 14.2369 26.2555 14.2475 26.2548C14.2685 26.2537 14.2893 26.2523 14.3106 26.2525C14.5562 26.256 14.7849 26.3576 14.9542 26.539C14.9751 26.5613 14.9945 26.5845 15.0124 26.6084C15.2829 26.9668 15.2465 27.4991 14.9108 27.8397L14.2189 28.5409C13.8671 28.8974 13.2946 28.8972 12.9428 28.5407ZM23.9166 21.8871C23.5648 22.2438 22.9923 22.2436 22.6406 21.8871C22.6277 21.8741 22.6142 21.862 22.6005 21.8507L18.818 17.9768C18.5893 17.7427 18.217 17.7408 17.986 17.9726C17.7551 18.2041 17.7532 18.5815 17.9817 18.8156L21.8051 22.731C21.8056 22.7314 21.8061 22.7319 21.8065 22.7324C22.1583 23.0889 22.1583 23.6693 21.8065 24.0258C21.636 24.1987 21.4094 24.2938 21.1684 24.2938C20.9271 24.2938 20.7006 24.1987 20.5303 24.0258L17.9725 21.4067C17.7441 21.1726 17.3717 21.1707 17.1408 21.4023C16.9098 21.634 16.908 22.0114 17.1364 22.2455L19.655 24.8245C19.6678 24.8407 19.6816 24.8563 19.6962 24.8711C20.048 25.2277 20.048 25.8081 19.6962 26.1646C19.3442 26.5211 18.7715 26.5209 18.4197 26.1644L17.0238 24.7347C16.7951 24.5007 16.4228 24.4986 16.1918 24.7303C15.9609 24.9618 15.959 25.3393 16.1875 25.5733L17.5445 26.9628C17.5573 26.9791 17.5711 26.9948 17.5859 27.0097C17.9377 27.3662 17.9377 27.9466 17.5859 28.3031C17.2341 28.6599 16.6617 28.6597 16.3099 28.3031C16.2694 28.2621 16.2218 28.2305 16.1765 28.1953C16.138 28.1656 16.128 28.1449 16.1472 28.0976C16.1666 28.0496 16.1957 28.0062 16.2152 27.958C16.2367 27.9041 16.2541 27.8487 16.271 27.793C16.3612 27.4984 16.3877 27.1816 16.3472 26.8758C16.2694 26.2892 15.951 25.7598 15.4685 25.4249C15.2078 25.2441 14.9062 25.1256 14.5935 25.0811C14.7451 24.4037 14.5631 23.6693 14.0898 23.1624C13.7002 22.7454 13.174 22.5113 12.608 22.5034C12.5874 22.5032 12.5668 22.5032 12.546 22.5034C12.5585 21.956 12.3622 21.412 11.9898 21.0132C11.6 20.5962 11.0738 20.3621 10.508 20.3542C10.3398 20.3519 10.1699 20.37 10.0061 20.4083C9.93602 19.9144 9.69043 19.4574 9.31849 19.1306C8.94885 18.8063 8.48399 18.6263 7.98892 18.6193C7.46776 18.6117 6.95575 18.8065 6.56871 19.1607L4.29477 16.0553L9.73483 9.33841L11.4686 9.81905L9.20428 13.8686C8.93054 14.3582 8.86142 14.9266 9.0095 15.4689C9.15759 16.0115 9.50503 16.4629 9.9882 16.7403C10.0184 16.7577 10.0489 16.7742 10.0798 16.79C10.082 16.7912 10.0843 16.7923 10.0869 16.7935C10.1681 16.8345 10.2516 16.8698 10.3363 16.8995C10.7307 17.038 11.1566 17.053 11.5675 16.938C12.1026 16.7879 12.548 16.4355 12.8218 15.9461L14.2932 13.3144L16.9206 13.5032L23.9168 20.5936C24.2684 20.9504 24.2684 21.5305 23.9166 21.8871ZM24.1603 19.1542L17.5971 12.5027C17.5848 12.49 17.5717 12.4779 17.5582 12.4665C17.4637 12.3867 17.3465 12.3385 17.2229 12.3297L14.006 12.0984C13.7835 12.0829 13.5624 12.2028 13.4526 12.3993L11.7982 15.3583C11.6794 15.5708 11.486 15.7236 11.2537 15.7888C11.0216 15.854 10.7781 15.8234 10.5682 15.703C10.3585 15.5826 10.2077 15.3866 10.1434 15.1511C10.0791 14.9157 10.1091 14.6689 10.2281 14.4564L12.4366 10.5061L13.3315 10.2452C13.3374 10.2433 13.3432 10.241 13.3491 10.2392L16.6892 9.26163H20.7248L25.763 15.7526L24.1603 19.1542ZM26.5336 14.8169L21.8745 8.81091L24.2523 7.27828L28.6059 13.0096L26.5336 14.8169Z" fill="#4D4F5C"/>
<path d="M18.1742 6.94997C18.3248 6.94997 18.4754 6.89174 18.5903 6.77529L22.6085 2.70282C22.8383 2.46992 22.8383 2.09251 22.6085 1.85961C22.3787 1.62671 22.0063 1.62671 21.7765 1.85961L17.7583 5.93208C17.5285 6.16498 17.5285 6.54239 17.7583 6.77529C17.8732 6.89174 18.0238 6.94997 18.1742 6.94997Z" fill="#4D4F5C"/>
<path d="M11.4093 6.77529C11.5242 6.89174 11.6748 6.94997 11.8255 6.94997C11.9758 6.94997 12.1264 6.89174 12.2413 6.77529C12.4711 6.54239 12.4711 6.16498 12.2413 5.93208L8.22308 1.85961C7.99329 1.62671 7.6209 1.62671 7.3911 1.85961C7.1613 2.09251 7.1613 2.46992 7.3911 2.70282L11.4093 6.77529Z" fill="#4D4F5C"/>
<path d="M15.0003 6.94971C15.3251 6.94971 15.5886 6.68271 15.5886 6.35354V2.98325C15.5886 2.65408 15.3251 2.38708 15.0003 2.38708C14.6756 2.38708 14.4121 2.65408 14.4121 2.98325V6.35354C14.4121 6.68271 14.6756 6.94971 15.0003 6.94971Z" fill="#4D4F5C"/>
<path d="M14.4579 0.822561C14.5513 1.05198 14.784 1.20253 15.0296 1.18954C15.2723 1.17678 15.4853 1.01069 15.5604 0.776631C15.6357 0.540717 15.5538 0.271864 15.3588 0.121547C15.1599 -0.0320171 14.8825 -0.0406 14.6744 0.0988141C14.4423 0.254234 14.3524 0.563682 14.4579 0.822561Z" fill="#4D4F5C"/>
</svg>
