<svg width="40" height="30" viewBox="0 0 40 30" fill="none" xmlns="http://www.w3.org/2000/svg">
<path d="M38.6328 10.2815H37.6562V5.2649C37.6562 4.08725 36.9027 3.12914 35.9766 3.12914H33.4766C33.2996 3.12914 33.1291 3.1646 32.9688 3.22947V2.93046C32.9688 1.31464 31.9348 0 30.6641 0H27.5391C26.2683 0 25.2344 1.31464 25.2344 2.93046V11.7011H14.7656V2.93046C14.7656 1.31464 13.7317 0 12.4609 0H9.33594C8.06516 0 7.03125 1.31464 7.03125 2.93046V3.22947C6.87094 3.1646 6.70039 3.12914 6.52344 3.12914H4.02344C3.09727 3.12914 2.34375 4.08725 2.34375 5.2649V6.22719C2.34375 6.63864 2.60609 6.97222 2.92969 6.97222C3.25328 6.97222 3.51562 6.63864 3.51562 6.22719V5.2649C3.51562 4.90887 3.74344 4.61921 4.02344 4.61921H6.52344C6.80344 4.61921 7.03125 4.90887 7.03125 5.2649V24.7351C7.03125 25.0911 6.80344 25.3808 6.52344 25.3808H4.02344C3.74344 25.3808 3.51562 25.0911 3.51562 24.7351V9.41513C3.51562 9.00368 3.25328 8.6701 2.92969 8.6701C2.60609 8.6701 2.34375 9.00368 2.34375 9.41513V10.2815H1.36719C0.613359 10.2815 0 11.0614 0 12.0199V17.9801C0 18.9386 0.613359 19.7185 1.36719 19.7185H2.34375V24.7351C2.34375 25.9127 3.09727 26.8709 4.02344 26.8709H6.52344C6.70039 26.8709 6.87094 26.8354 7.03125 26.7705V27.0695C7.03125 28.6854 8.06516 30 9.33594 30H12.4609C13.7317 30 14.7656 28.6854 14.7656 27.0695V18.2989H15.6184C15.942 18.2989 16.2044 17.9653 16.2044 17.5539C16.2044 17.1424 15.942 16.8088 15.6184 16.8088H14.7656V13.1912H25.2344V16.8088H18.1584C17.8348 16.8088 17.5725 17.1424 17.5725 17.5539C17.5725 17.9653 17.8348 18.2989 18.1584 18.2989H25.2344V27.0695C25.2344 28.6854 26.2683 30 27.5391 30H30.6641C31.9348 30 32.9688 28.6854 32.9688 27.0695V26.7705C33.1291 26.8354 33.2996 26.8709 33.4766 26.8709H35.9766C36.9027 26.8709 37.6562 25.9127 37.6562 24.7351V23.729C37.6562 23.3176 37.3939 22.984 37.0703 22.984C36.7467 22.984 36.4844 23.3176 36.4844 23.729V24.7351C36.4844 25.0911 36.2566 25.3808 35.9766 25.3808H33.4766C33.1966 25.3808 32.9688 25.0911 32.9688 24.7351V5.2649C32.9688 4.90887 33.1966 4.61921 33.4766 4.61921H35.9766C36.2566 4.61921 36.4844 4.90887 36.4844 5.2649V20.5132C36.4844 20.9247 36.7467 21.2583 37.0703 21.2583C37.3939 21.2583 37.6562 20.9247 37.6562 20.5132V19.7185H38.6328C39.3866 19.7185 40 18.9386 40 17.9801V12.0199C40 11.0614 39.3866 10.2815 38.6328 10.2815ZM1.36719 18.2285C1.25953 18.2285 1.17188 18.117 1.17188 17.9801V12.0199C1.17188 11.883 1.25953 11.7715 1.36719 11.7715H2.34375V18.2285H1.36719ZM13.5938 27.0695C13.5938 27.8637 13.0855 28.5099 12.4609 28.5099H9.33594C8.71133 28.5099 8.20312 27.8637 8.20312 27.0695V2.93046C8.20312 2.13626 8.71133 1.49007 9.33594 1.49007H12.4609C13.0855 1.49007 13.5938 2.13626 13.5938 2.93046V27.0695ZM31.7969 27.0695C31.7969 27.8637 31.2887 28.5099 30.6641 28.5099H27.5391C26.9145 28.5099 26.4062 27.8637 26.4062 27.0695V2.93046C26.4062 2.13626 26.9145 1.49007 27.5391 1.49007H30.6641C31.2887 1.49007 31.7969 2.13626 31.7969 2.93046V27.0695ZM38.8281 17.9801C38.8281 18.117 38.7405 18.2285 38.6328 18.2285H37.6562V11.7715H38.6328C38.7405 11.7715 38.8281 11.883 38.8281 12.0199V17.9801Z" fill="#4D4F5C"/>
</svg>
