<svg width="30" height="30" viewBox="0 0 30 30" fill="none" xmlns="http://www.w3.org/2000/svg">
<path d="M16.8945 15.4681L29.7259 3.48099C30.0085 3.21697 30.0784 2.85029 29.9084 2.52404C29.7385 2.19779 29.3719 1.99511 28.9518 1.99511H24.9382L26.3372 0.742202C26.534 0.565952 26.5252 0.28769 26.3177 0.120581C26.1102 -0.0464113 25.7825 -0.0390871 25.5857 0.137163L23.5112 1.99517H1.04825C0.628098 1.99517 0.261493 2.19785 0.091543 2.5241C-0.0784073 2.85041 -0.00843991 3.21709 0.274121 3.48105L13.1055 15.4681C13.2423 15.5958 13.396 15.7076 13.5616 15.8031V26.3653C13.5616 26.9231 13.1447 27.4211 12.5242 27.6042L8.22494 28.8736C8.21445 28.8767 8.2041 28.88 8.19396 28.8837C7.89028 28.9924 7.72378 29.2598 7.78899 29.5341C7.85426 29.8084 8.12999 30 8.45954 30H21.5403C21.8699 30 22.1457 29.8085 22.211 29.5341C22.2762 29.2598 22.1097 28.9923 21.806 28.8837C21.7958 28.88 21.7854 28.8766 21.775 28.8736L17.4757 27.6042C16.8553 27.421 16.4383 26.9231 16.4383 26.3653V15.8031C16.604 15.7076 16.7577 15.5958 16.8945 15.4681ZM23.9564 2.87455H28.9518C28.9551 2.87455 28.957 2.8746 28.9576 2.87466C28.9605 2.87712 28.9636 2.88322 28.9638 2.88474C28.9638 2.88474 28.9629 2.88638 28.9596 2.88949L25.7727 5.86664H23.2256C23.4584 5.2333 23.3102 4.49964 22.801 3.90943L23.9564 2.87455ZM17.1356 28.4348L19.4582 29.1206H10.5417L12.8643 28.4348C13.9009 28.1288 14.5973 27.2971 14.5973 26.3653V16.1525C14.6201 16.1556 14.6432 16.1578 14.6661 16.1604C14.6783 16.1617 14.6904 16.1633 14.7026 16.1645C14.73 16.1672 14.7576 16.1694 14.7851 16.1713C14.7934 16.1719 14.8017 16.1725 14.8099 16.173C14.873 16.177 14.9364 16.1798 15 16.1798C15.0638 16.1798 15.1272 16.177 15.1904 16.173C15.1984 16.1725 15.2065 16.1719 15.2145 16.1713C15.2423 16.1694 15.27 16.1672 15.2977 16.1644C15.3093 16.1633 15.3208 16.1618 15.3324 16.1605C15.3559 16.1579 15.3794 16.1556 15.4027 16.1525V26.3651C15.4027 27.2971 16.0991 28.1288 17.1356 28.4348ZM16.1281 14.8765C16.003 14.9935 15.8579 15.0878 15.6988 15.1576C15.695 15.1591 15.691 15.1602 15.6872 15.1618C15.2569 15.3462 14.743 15.3463 14.3127 15.1618C14.309 15.1603 14.305 15.1592 14.3012 15.1577C14.1421 15.0878 13.997 14.9936 13.8718 14.8766L5.16859 6.74601H7.08869C7.37463 6.74601 7.60648 6.54914 7.60648 6.30632C7.60648 6.06351 7.37463 5.86664 7.08869 5.86664H4.22721L1.04038 2.88949C1.0381 2.88738 1.03693 2.88597 1.03659 2.88574C1.03672 2.88228 1.03997 2.87625 1.04107 2.87507C1.04107 2.87507 1.04314 2.87455 1.04818 2.87455H22.5293L22.0498 3.30398C21.6269 3.06837 21.1432 2.93472 20.6481 2.92125C19.9626 2.90261 19.3363 3.11414 18.8864 3.5172C18.4364 3.92021 18.2208 4.46203 18.2793 5.04281C18.287 5.11851 18.2995 5.19363 18.3162 5.26798C17.5692 5.18244 16.8151 5.3724 16.2897 5.84297C16.2811 5.8507 16.2732 5.85879 16.2647 5.86664H9.49815C9.21221 5.86664 8.98037 6.06351 8.98037 6.30632C8.98037 6.54914 9.21221 6.74601 9.49815 6.74601H15.7308C15.6604 7.02006 15.658 7.3081 15.7215 7.59205C15.6331 7.58191 15.544 7.57523 15.4546 7.57277C14.7686 7.5539 14.1429 7.76566 13.693 8.16873C12.8916 8.88644 12.8849 10.0204 13.611 10.8622L13.0386 11.3749C12.8419 11.5512 12.8506 11.8294 13.0581 11.9965C13.1583 12.0772 13.2864 12.1171 13.4143 12.1171C13.5514 12.1171 13.6884 12.0711 13.7902 11.98L14.3622 11.4676C14.7852 11.7032 15.2688 11.8369 15.764 11.8503C15.792 11.8511 15.8198 11.8515 15.8477 11.8515C16.5008 11.8515 17.0942 11.641 17.5258 11.2544C17.9757 10.8514 18.1914 10.3096 18.1328 9.72884C18.1252 9.6532 18.1126 9.57814 18.096 9.50379C18.2116 9.51703 18.3274 9.52406 18.4424 9.52406C19.0709 9.52406 19.6785 9.32642 20.1226 8.92863C20.648 8.458 20.8312 7.80843 20.6908 7.17955C20.7792 7.18968 20.8682 7.19636 20.9576 7.19882C20.9856 7.19959 21.0134 7.2 21.0412 7.2C21.6085 7.2 22.1305 7.04097 22.5407 6.74595H24.8316L16.1281 14.8765ZM17.0411 6.448C17.2829 6.2315 17.6168 6.12486 17.9696 6.12486C18.3748 6.12486 18.8048 6.26554 19.1481 6.54199C19.7904 7.0592 19.8903 7.85841 19.3709 8.32365C18.8514 8.78877 17.9064 8.7467 17.2641 8.22984C17.264 8.22978 17.2639 8.22966 17.2638 8.22961C16.6216 7.71246 16.5217 6.91324 17.0411 6.448ZM16.7741 10.6495C16.5304 10.8677 16.1847 10.9815 15.7971 10.9715C15.3878 10.9604 14.9865 10.8126 14.6671 10.5554C14.0248 10.0383 13.9249 9.23906 14.4444 8.77382C14.6777 8.56482 15.0058 8.45109 15.3724 8.45109C15.3887 8.45109 15.405 8.45132 15.4213 8.45173C15.8305 8.46287 16.2317 8.61058 16.5511 8.86757C16.5511 8.86763 16.5513 8.86775 16.5513 8.86781C16.8707 9.12498 17.0658 9.45738 17.1007 9.8039C17.1337 10.1309 17.0177 10.4312 16.7741 10.6495ZM19.3112 4.96781C19.2782 4.6408 19.3942 4.3405 19.6378 4.12224C19.8712 3.9133 20.1992 3.79951 20.5659 3.79951C20.582 3.79951 20.5984 3.79974 20.6148 3.80015C21.0241 3.81134 21.4254 3.95906 21.7447 4.21623C22.387 4.73332 22.4869 5.53259 21.9675 5.99783C21.7238 6.21603 21.376 6.32982 20.9905 6.31986C20.5813 6.30879 20.18 6.16101 19.8606 5.90384C19.5412 5.64673 19.3462 5.31427 19.3112 4.96781Z" fill="#4D4F5C"/>
</svg>
