<svg width="30" height="30" viewBox="0 0 30 30" fill="none" xmlns="http://www.w3.org/2000/svg">
<path d="M18.0251 5.41863H16.513V3.91365C16.513 3.7806 16.4599 3.653 16.3654 3.55892C16.2708 3.46484 16.1426 3.41199 16.009 3.41199H13.9928C13.8591 3.41199 13.7309 3.46484 13.6364 3.55892C13.5419 3.653 13.4888 3.7806 13.4888 3.91365V5.41863H11.9767C11.843 5.41863 11.7148 5.47148 11.6203 5.56556C11.5258 5.65964 11.4727 5.78724 11.4727 5.92029V7.92694C11.4727 8.05998 11.5258 8.18758 11.6203 8.28166C11.7148 8.37574 11.843 8.4286 11.9767 8.4286H13.4888V9.93358C13.4888 10.0666 13.5419 10.1942 13.6364 10.2883C13.7309 10.3824 13.8591 10.4352 13.9928 10.4352H16.009C16.1426 10.4352 16.2708 10.3824 16.3654 10.2883C16.4599 10.1942 16.513 10.0666 16.513 9.93358V8.4286H18.0251C18.1588 8.4286 18.287 8.37574 18.3815 8.28166C18.476 8.18758 18.5291 8.05998 18.5291 7.92694V5.92029C18.5291 5.78724 18.476 5.65964 18.3815 5.56556C18.287 5.47148 18.1588 5.41863 18.0251 5.41863ZM17.5211 7.42527H16.009C15.8753 7.42527 15.7471 7.47813 15.6526 7.57221C15.558 7.66629 15.5049 7.79389 15.5049 7.92694V9.43192H14.4969V7.92694C14.4969 7.79389 14.4438 7.66629 14.3492 7.57221C14.2547 7.47813 14.1265 7.42527 13.9928 7.42527H12.4807V6.42195H13.9928C14.1265 6.42195 14.2547 6.3691 14.3492 6.27502C14.4438 6.18094 14.4969 6.05334 14.4969 5.92029V4.41531H15.5049V5.92029C15.5049 6.05334 15.558 6.18094 15.6526 6.27502C15.7471 6.3691 15.8753 6.42195 16.009 6.42195H17.5211V7.42527Z" fill="#4D4F5C"/>
<path d="M28.9767 8.10752C28.9869 8.01926 28.992 7.93048 28.9919 7.84164C28.9894 7.3818 28.8292 6.93661 28.5376 6.57986C28.2461 6.2231 27.8409 5.97623 27.389 5.88015C26.878 5.78332 26.349 5.88333 25.9092 6.15994C25.4694 6.43654 25.1516 6.8691 25.0201 7.37008L22.8023 13.7211C22.7695 13.7341 22.7375 13.7492 22.7066 13.7663L18.2509 16.3649C17.5691 16.7635 17.0036 17.3322 16.6102 18.015C16.2168 18.6977 16.0092 19.4707 16.0079 20.2577V24.9834C15.8743 24.9834 15.7461 25.0362 15.6515 25.1303C15.557 25.2244 15.5039 25.352 15.5039 25.4851V29.4983C15.5039 29.6314 15.557 29.759 15.6515 29.8531C15.7461 29.9471 15.8743 30 16.0079 30H23.0644C23.1981 30 23.3263 29.9471 23.4208 29.8531C23.5154 29.759 23.5685 29.6314 23.5685 29.4983V25.4851C23.5685 25.352 23.5154 25.2244 23.4208 25.1303C23.3263 25.0362 23.1981 24.9834 23.0644 24.9834V23.8797C23.0654 23.6679 23.1107 23.4585 23.1975 23.265C23.2842 23.0715 23.4106 22.8982 23.5685 22.756L26.9757 19.741C27.3484 19.4165 27.6152 18.9885 27.7419 18.512L29.9294 10.37C29.9761 10.2 29.9998 10.0245 29.9999 9.84828C29.998 9.49426 29.9024 9.147 29.7227 8.84142C29.5431 8.53584 29.2858 8.28272 28.9767 8.10752ZM25.9828 7.66606C26.0447 7.40662 26.2025 7.17993 26.4248 7.03117C26.6472 6.8824 26.9176 6.8225 27.1824 6.8634C27.4083 6.91049 27.6111 7.03333 27.757 7.21138C27.9029 7.38943 27.9829 7.61191 27.9838 7.84164V7.85167C27.5336 7.85999 27.0984 8.01444 26.7445 8.29154C26.3906 8.56864 26.1372 8.95321 26.0231 9.38675L24.6168 13.7061C24.4039 13.6055 24.1757 13.5411 23.9414 13.5154L25.9828 7.66606ZM22.5604 28.9967H16.512V25.9867H22.5604V28.9967ZM28.9566 10.1091L26.764 18.2561C26.6882 18.5392 26.5304 18.7939 26.3104 18.9885L22.8981 22.0035C22.634 22.2405 22.4227 22.5299 22.2778 22.853C22.1328 23.1761 22.0574 23.5259 22.0564 23.8797V24.9834H17.016V20.2577C17.0185 19.6457 17.1805 19.0447 17.4862 18.5136C17.7919 17.9825 18.2308 17.5395 18.76 17.2277L23.2106 14.6341C23.3253 14.5676 23.4522 14.5243 23.5838 14.5067C23.7154 14.489 23.8493 14.4975 23.9776 14.5315C24.1059 14.5656 24.2262 14.6245 24.3316 14.705C24.437 14.7854 24.5254 14.8858 24.5916 15.0003C24.7226 15.2321 24.7587 15.5052 24.6925 15.7629C24.6574 15.8901 24.5976 16.0092 24.5163 16.1133C24.435 16.2175 24.3338 16.3047 24.2187 16.3699L21.3305 18.0304C21.2208 18.0998 21.1423 18.2087 21.1114 18.3344C21.0805 18.4601 21.0995 18.5928 21.1646 18.7048C21.2296 18.8168 21.3357 18.8995 21.4605 18.9355C21.5854 18.9716 21.7194 18.9582 21.8346 18.8982L24.7227 17.2377C24.9535 17.1074 25.1559 16.9324 25.3177 16.723C25.4796 16.5137 25.5978 16.2742 25.6652 16.0187C25.8024 15.5054 25.73 14.9589 25.4636 14.4987L25.4334 14.4535L26.9909 9.6727C27.0527 9.41327 27.2106 9.18657 27.4329 9.03781C27.6552 8.88905 27.9257 8.82914 28.1905 8.87004C28.4164 8.91714 28.6192 9.03997 28.7651 9.21802C28.9109 9.39607 28.991 9.61855 28.9919 9.84828C28.9936 9.93652 28.9817 10.0245 28.9566 10.1091Z" fill="#4D4F5C"/>
<path d="M13.992 24.9834V20.2577C13.9907 19.4707 13.7831 18.6977 13.3897 18.0149C12.9964 17.3322 12.4309 16.7635 11.749 16.3648L7.29338 13.7612C7.26314 13.7462 7.22785 13.7361 7.19761 13.7211L4.99498 7.40518C4.86696 6.89689 4.54916 6.45625 4.10626 6.17294C3.66335 5.88962 3.12863 5.78491 2.6109 5.88013C2.15908 5.97621 1.75382 6.22309 1.4623 6.57984C1.17078 6.93659 1.01051 7.38179 1.00807 7.84162C1.00794 7.93047 1.01299 8.01924 1.02319 8.1075C0.714098 8.28271 0.456808 8.53583 0.277194 8.8414C0.097581 9.14698 0.00197782 9.49424 0 9.84827C0.000978966 10.0241 0.0229749 10.1993 0.0655244 10.37L2.25807 18.5069C2.38337 18.9854 2.6503 19.4154 3.02421 19.741L6.42644 22.756C6.58588 22.8972 6.71363 23.0702 6.80134 23.2638C6.88906 23.4575 6.93478 23.6673 6.93551 23.8797V24.9834C6.80184 24.9834 6.67363 25.0362 6.57911 25.1303C6.48458 25.2244 6.43148 25.352 6.43148 25.485V29.4983C6.43148 29.6314 6.48458 29.759 6.57911 29.8531C6.67363 29.9471 6.80184 30 6.93551 30H13.992C14.1257 30 14.2539 29.9471 14.3484 29.8531C14.4429 29.759 14.496 29.6314 14.496 29.4983V25.485C14.496 25.352 14.4429 25.2244 14.3484 25.1303C14.2539 25.0362 14.1257 24.9834 13.992 24.9834ZM2.01614 7.84162C2.01676 7.61259 2.0961 7.39066 2.24097 7.2127C2.38584 7.03475 2.58752 6.91148 2.81251 6.86338C3.08452 6.82409 3.3614 6.8886 3.58762 7.04397C3.81384 7.19935 3.97268 7.4341 4.03228 7.70116L6.05849 13.5154C5.82427 13.5411 5.59599 13.6055 5.38309 13.706L3.98691 9.41182C3.87329 8.97399 3.61949 8.5849 3.26391 8.30341C2.90834 8.02192 2.47033 7.86334 2.01614 7.85166V7.84162ZM7.0968 22.0035L3.68953 18.9885C3.46829 18.7928 3.3104 18.5362 3.2359 18.2511L1.03831 10.1091C1.01745 10.0238 1.00729 9.93613 1.00807 9.84827C1.00869 9.61923 1.08803 9.3973 1.2329 9.21935C1.37777 9.04139 1.57945 8.91813 1.80444 8.87003C2.07454 8.82968 2.34996 8.89262 2.57532 9.04619C2.80068 9.19976 2.95926 9.43256 3.01917 9.69777L4.56655 14.4535L4.53631 14.4987C4.26997 14.9589 4.19749 15.5054 4.3347 16.0187C4.40218 16.2742 4.52034 16.5137 4.68221 16.723C4.84408 16.9324 5.04639 17.1074 5.27724 17.2377L8.16536 18.8982C8.28055 18.9582 8.41457 18.9716 8.53942 18.9355C8.66428 18.8995 8.77031 18.8168 8.83537 18.7048C8.90042 18.5927 8.91948 18.46 8.88855 18.3344C8.85762 18.2087 8.7791 18.0998 8.66939 18.0304L5.78127 16.3699C5.66609 16.3046 5.56496 16.2175 5.48366 16.1133C5.40236 16.0091 5.34249 15.8901 5.30748 15.7628C5.24127 15.5052 5.27737 15.2321 5.40829 15.0003C5.47415 14.886 5.56198 14.7857 5.66677 14.7052C5.77157 14.6247 5.89127 14.5655 6.01904 14.5311C6.14682 14.4966 6.28017 14.4875 6.41147 14.5043C6.54277 14.5211 6.66946 14.5635 6.7843 14.6291L11.24 17.2277C11.7692 17.5395 12.2081 17.9825 12.5137 18.5136C12.8194 19.0447 12.9814 19.6457 12.9839 20.2577V24.9834H7.94358V23.8797C7.94272 23.5253 7.86688 23.1751 7.72098 22.8518C7.57508 22.5286 7.36241 22.2395 7.0968 22.0035ZM13.488 28.9967H7.43955V25.9867H13.488V28.9967Z" fill="#4D4F5C"/>
<path d="M22.1303 1.47155C21.6624 1.00502 21.1067 0.634916 20.4949 0.382409C19.8831 0.129902 19.2272 -4.65834e-05 18.5649 1.25265e-08C17.9026 4.66084e-05 17.2468 0.130088 16.6351 0.38268C16.0233 0.635273 15.4676 1.00546 14.9997 1.47205C14.5319 1.00545 13.9763 0.635258 13.3645 0.382678C12.7528 0.130097 12.097 8.51715e-05 11.4347 8.51715e-05C10.7724 8.51715e-05 10.1166 0.130097 9.5049 0.382678C8.89316 0.635258 8.33748 1.00545 7.86968 1.47205C6.9263 2.41301 6.39648 3.688 6.39648 5.01729C6.39648 6.34657 6.9263 7.62157 7.86968 8.56253L14.6439 15.3048C14.7384 15.3989 14.8666 15.4517 15.0003 15.4517C15.1339 15.4517 15.2621 15.3989 15.3566 15.3048L22.1308 8.56253C23.0742 7.62142 23.6039 6.3463 23.6038 5.01693C23.6037 3.68757 23.0738 2.41252 22.1303 1.47155ZM14.9997 14.2408L8.58188 7.85318C8.01843 7.29162 7.63492 6.57641 7.47981 5.79795C7.32471 5.01949 7.40498 4.21274 7.71048 3.47968C8.01598 2.74662 8.53299 2.12016 9.19615 1.6795C9.85931 1.23885 10.6389 1.00377 11.4362 1.004C11.9659 1.00219 12.4906 1.10537 12.9798 1.30752C13.469 1.50966 13.9129 1.80673 14.2855 2.1814L14.6434 2.53758C14.7379 2.63163 14.8661 2.68446 14.9997 2.68446C15.1334 2.68446 15.2616 2.63163 15.3561 2.53758L15.715 2.1804C16.0892 1.80729 16.5336 1.51128 17.0229 1.30932C17.5121 1.10736 18.0366 1.0034 18.5663 1.0034C19.096 1.0034 19.6204 1.10736 20.1097 1.30932C20.599 1.51128 21.0434 1.80729 21.4176 2.1804C22.1726 2.93288 22.5967 3.95284 22.5967 5.01629C22.5967 6.07973 22.1726 7.0997 21.4176 7.85217L14.9997 14.2408Z" fill="#4D4F5C"/>
</svg>
