<svg width="30" height="30" viewBox="0 0 30 30" fill="none" xmlns="http://www.w3.org/2000/svg">
<path d="M28.5312 3.61525L15.2055 0.0267638C15.0724 -0.00892127 14.9276 -0.00892127 14.7945 0.0267638L1.46875 3.61525C1.03985 3.73104 0.668077 3.94723 0.404923 4.23386C0.141769 4.52049 0.000262235 4.86338 2.53765e-06 5.21504V22.9766C-0.000607407 23.2863 0.108748 23.5901 0.316113 23.8548C0.523479 24.1196 0.820873 24.3351 1.17578 24.4779L14.7109 29.945C14.8001 29.9811 14.8993 30 15 30C15.1007 30 15.1999 29.9811 15.2891 29.945L28.8242 24.4779C29.1793 24.3353 29.4769 24.1198 29.6843 23.855C29.8917 23.5902 30.0009 23.2863 30 22.9766V5.21504C29.9997 4.86338 29.8582 4.52049 29.5951 4.23386C29.3319 3.94723 28.9601 3.73104 28.5312 3.61525ZM28.75 22.9766C28.7502 23.1094 28.7033 23.2396 28.6145 23.3531C28.5256 23.4666 28.3982 23.559 28.2461 23.6202L15 28.9706L1.75391 23.6202C1.60182 23.559 1.47439 23.4666 1.38552 23.3531C1.29666 23.2396 1.24978 23.1094 1.25 22.9766V5.21504C1.2502 5.06429 1.31091 4.91732 1.42372 4.79444C1.53652 4.67157 1.69586 4.57887 1.87969 4.52916L15 0.996315L28.1203 4.52916C28.3041 4.57887 28.4635 4.67157 28.5763 4.79444C28.6891 4.91732 28.7498 5.06429 28.75 5.21504V22.9766Z" fill="#4D4F5C"/>
<path d="M27.0803 5.274L15.2053 2.07629C15.0723 2.04049 14.9277 2.04049 14.7947 2.07629L2.91969 5.274C2.7971 5.30701 2.69082 5.36874 2.61562 5.45064C2.54041 5.53254 2.5 5.63053 2.5 5.73101V22.5364C2.50001 22.6248 2.53134 22.7116 2.59056 22.7872C2.64979 22.8628 2.73465 22.9244 2.83594 22.9653L14.7109 27.7617C14.8002 27.7977 14.8993 27.8165 15 27.8165C15.1007 27.8165 15.1998 27.7977 15.2891 27.7617L27.1641 22.9653C27.2653 22.9244 27.3502 22.8628 27.4094 22.7872C27.4687 22.7116 27.5 22.6248 27.5 22.5364V5.73101C27.5 5.63053 27.4596 5.53254 27.3844 5.45064C27.3092 5.36874 27.2029 5.30701 27.0803 5.274ZM26.25 22.2432L15 26.7873L3.75 22.2432V6.07504L15 3.0456L26.25 6.07504V22.2432Z" fill="#4D4F5C"/>
<path d="M10.1719 13.4517C10.1062 13.4136 10.0315 13.3859 9.95199 13.3701C9.87248 13.3543 9.78974 13.3508 9.70849 13.3598C9.62724 13.3688 9.54907 13.3901 9.47844 13.4225C9.40782 13.4549 9.34612 13.4977 9.29688 13.5485L7.04688 15.8711C6.94742 15.9738 6.90472 16.1028 6.92816 16.2298C6.9516 16.3569 7.03927 16.4715 7.17188 16.5485L13.4728 20.2071C13.5932 20.277 13.7421 20.3109 13.8921 20.3027C14.0422 20.2944 14.1834 20.2445 14.2898 20.1622L23.5647 12.9817C23.6227 12.9367 23.6688 12.8834 23.7002 12.8247C23.7316 12.766 23.7478 12.703 23.7478 12.6395C23.7478 12.5759 23.7316 12.513 23.7002 12.4543C23.6688 12.3956 23.6227 12.3422 23.5647 12.2973L20.913 10.2444C20.855 10.1995 20.7861 10.1638 20.7103 10.1395C20.6344 10.1152 20.5531 10.1027 20.4711 10.1027C20.389 10.1027 20.3077 10.1152 20.2318 10.1395C20.156 10.1638 20.0871 10.1995 20.0291 10.2444L13.4375 15.3477L10.1719 13.4517ZM13.9379 16.3289L20.471 11.2709L22.2388 12.6396L13.7891 19.1811L8.42188 16.0646L9.92188 14.5163L13.1209 16.3738C13.2413 16.4437 13.3902 16.4776 13.5402 16.4693C13.6903 16.4611 13.8315 16.4112 13.9379 16.3288V16.3289Z" fill="#4D4F5C"/>
</svg>
