<svg width="40" height="30" viewBox="0 0 40 30" fill="none" xmlns="http://www.w3.org/2000/svg">
<path d="M2.00024 30H37.9998C38.5241 29.9994 39.0273 29.7731 39.4013 29.3697C39.7753 28.9662 39.9901 28.4179 39.9997 27.8425C40.0183 26.6147 39.0732 25.6098 37.9543 25.6098H29.4377L34.5739 18.9474C34.9767 18.4239 35.3468 17.8711 35.6816 17.2927C35.717 17.2454 36.4504 15.8262 36.7199 15.1364L37.3256 13.585C37.7835 12.4062 37.8792 11.0959 37.5981 9.85216L36.9414 6.96951L37.7893 7.27966C37.9067 7.32265 38.0327 7.32888 38.1532 7.29767C38.2737 7.26646 38.3839 7.19904 38.4715 7.10296L39.1382 6.37125C39.2 6.30325 39.2491 6.22254 39.2825 6.13373C39.316 6.04492 39.3331 5.94975 39.3331 5.85366V3.65854C39.3331 3.52264 39.2986 3.38943 39.2335 3.27383C39.1684 3.15823 39.0753 3.0648 38.9646 3.00402L37.728 2.32546L36.2009 0.64939C36.0134 0.443508 35.7907 0.280193 35.5456 0.16877C35.3005 0.0573478 35.0378 -5.30019e-07 34.7726 5.8942e-08H34.6871C34.4034 -7.18044e-05 34.1229 0.0655701 33.8639 0.192635C33.6049 0.3197 33.3733 0.505326 33.1842 0.737378C32.6032 0.768918 32.0455 0.997469 31.5878 1.39152C31.1743 1.75688 30.8649 2.24468 30.6962 2.79713L30.034 4.89055C29.9842 5.05471 29.989 5.23294 30.0475 5.3936L30.6665 7.09216V8.78049C30.6665 8.97455 30.7368 9.16066 30.8618 9.29788C30.9868 9.43511 31.1564 9.5122 31.3332 9.5122H32.6665V10.341L32.0161 10.443L29.5896 10.8234C28.9634 10.9216 28.3904 11.2644 27.9759 11.789C27.5614 12.3135 27.3332 12.9846 27.3332 13.6789V16.6266L25.8676 19.3079L19.3123 12.113C18.9491 11.7143 18.511 11.4072 18.0286 11.2131C17.5462 11.019 17.0311 10.9425 16.5191 10.989C16.0071 11.0355 15.5104 11.2039 15.0637 11.4824C14.617 11.7609 14.2309 12.1429 13.9322 12.6017L8.19533 21.417L6.39318 22.7355L3.83855 23.4365C3.69431 23.4761 3.56627 23.5674 3.47477 23.696C3.38326 23.8247 3.33356 23.9832 3.33356 24.1463V25.6098H2.04574C0.92684 25.6098 -0.0183136 26.6147 0.000269456 27.8425C0.00987077 28.4179 0.224737 28.9662 0.598701 29.3697C0.972665 29.7731 1.47589 29.9994 2.00024 30ZM32.6665 2.36707V3.35543L32.1686 2.80893C32.3031 2.62346 32.4731 2.47263 32.6665 2.36707ZM31.9998 8.04878V6.95122C31.9998 6.85814 31.9837 6.76591 31.9522 6.67948L31.3763 5.09909L31.6245 4.2814L32.6662 5.4247V8.04878H31.9998ZM32.2438 13.6534L32.6466 11.8848L32.6503 11.8677L32.66 11.8203L33.4275 11.6999C33.5863 11.675 33.7317 11.588 33.8368 11.455C33.9419 11.3219 33.9998 11.1517 33.9998 10.9756V2.21771C34 2.01773 34.0725 1.826 34.2013 1.68458C34.3302 1.54317 34.5048 1.46363 34.6871 1.46341H34.7726C34.8628 1.46313 34.9521 1.48249 35.0355 1.52038C35.1188 1.55826 35.1945 1.61392 35.2581 1.68412L36.8617 3.44424C36.9123 3.49991 36.9708 3.54624 37.0349 3.58143L37.9998 4.11073V5.55055L37.8198 5.7482L37.4369 5.60817L36.1754 4.24921C36.07 4.1357 35.9333 4.06381 35.7866 4.04483C35.64 4.02584 35.4918 4.06084 35.3652 4.14431C35.2386 4.22779 35.1409 4.35503 35.0873 4.50607C35.0337 4.6571 35.0274 4.82338 35.0692 4.97881L36.3042 10.2072C36.5151 11.1406 36.4433 12.124 36.0996 13.0086L35.494 14.5599C35.2874 15.0882 35.0508 15.6018 34.7856 16.0976H33.9823C33.7099 16.0976 33.4412 16.0295 33.1964 15.8984C32.9516 15.7673 32.7372 15.5767 32.5696 15.3411C32.402 15.1055 32.2855 14.831 32.229 14.5386C32.1725 14.2461 32.1775 13.9434 32.2436 13.6534H32.2438ZM28.5716 17.2057C28.6337 17.092 28.6665 16.9619 28.6665 16.8293V13.6789C28.6666 13.3369 28.7791 13.0063 28.9832 12.7479C29.1874 12.4895 29.4696 12.3206 29.7781 12.2721L31.2364 12.0434L30.9506 13.2983C30.8373 13.795 30.8268 14.3133 30.9199 14.815C31.013 15.3167 31.2073 15.7892 31.4886 16.1977C31.7698 16.6062 32.1308 16.9404 32.5451 17.1757C32.9595 17.411 33.4165 17.5415 33.8828 17.5575C33.7762 17.7081 33.6678 17.857 33.556 18.0019L28.4212 24.6626L28.3008 23.872C28.1079 22.5871 27.5987 21.3846 26.8282 20.3944L28.5716 17.2057ZM15.0172 13.4522C15.2032 13.1662 15.4438 12.9282 15.7222 12.7547C16.0005 12.5811 16.31 12.4762 16.629 12.4472C16.9481 12.4183 17.2691 12.4659 17.5696 12.5869C17.8702 12.7078 18.1432 12.8992 18.3695 13.1477L25.5285 21.0052C26.299 21.8478 26.8088 22.935 26.9856 24.113L27.213 25.6098H23.6666L17.2214 15.6916C17.159 15.589 17.074 15.5053 16.9742 15.4484C16.8745 15.3914 16.7632 15.3631 16.6508 15.3661C16.5384 15.369 16.4285 15.4031 16.3314 15.4652C16.2342 15.5272 16.1529 15.6153 16.0951 15.7211L14.1372 19.3024L10.6668 23.1115L9.53756 21.8721L15.0172 13.4522ZM22 25.6098H10.9251L11.2495 24.5416L15.1381 20.2735C15.1766 20.2312 15.2101 20.1838 15.2381 20.1326L16.696 17.4655L22 25.6098ZM4.66687 24.7176L6.82851 24.1245C6.90273 24.1042 6.97321 24.07 7.03684 24.0234L8.58199 22.8927L9.90422 24.344L9.51964 25.6098H4.66687V24.7176ZM2.00024 27.0732H37.9998C38.1766 27.0732 38.3461 27.1503 38.4712 27.2875C38.5962 27.4247 38.6664 27.6108 38.6664 27.8049C38.6664 27.9989 38.5962 28.1851 38.4712 28.3223C38.3461 28.4595 38.1766 28.5366 37.9998 28.5366H2.00024C1.82343 28.5366 1.65387 28.4595 1.52884 28.3223C1.40382 28.1851 1.33358 27.9989 1.33358 27.8049C1.33358 27.6108 1.40382 27.4247 1.52884 27.2875C1.65387 27.1503 1.82343 27.0732 2.00024 27.0732Z" fill="#4D4F5C"/>
<path d="M34.8267 22.0847L34.1601 22.9385C34.1023 23.0113 34.0582 23.0959 34.0303 23.1876C34.0025 23.2792 33.9915 23.376 33.9979 23.4723C34.0043 23.5686 34.028 23.6626 34.0676 23.7488C34.1073 23.835 34.1621 23.9118 34.2289 23.9746C34.2957 24.0375 34.3732 24.0852 34.4569 24.115C34.5406 24.1448 34.6288 24.1562 34.7166 24.1484C34.8043 24.1406 34.8897 24.1138 34.9679 24.0696C35.0462 24.0254 35.1157 23.9646 35.1724 23.8908L35.839 23.0371C35.896 22.9642 35.9393 22.8796 35.9665 22.7883C35.9937 22.697 36.0043 22.6006 35.9976 22.5048C35.9909 22.409 35.967 22.3156 35.9274 22.2299C35.8878 22.1442 35.8332 22.0679 35.7667 22.0054C35.7003 21.9429 35.6232 21.8953 35.54 21.8654C35.4568 21.8356 35.369 21.824 35.2818 21.8314C35.1945 21.8387 35.1094 21.8649 35.0313 21.9084C34.9532 21.9519 34.8837 22.0118 34.8267 22.0847Z" fill="#4D4F5C"/>
<path d="M38.1605 17.8164L36.1605 20.3774C36.0455 20.5247 35.9884 20.7162 36.002 20.9097C36.0155 21.1032 36.0985 21.2829 36.2328 21.4092C36.367 21.5355 36.5415 21.5981 36.7178 21.5832C36.8941 21.5684 37.0578 21.4772 37.1729 21.3299L39.1728 18.7689C39.2879 18.6216 39.3449 18.4301 39.3314 18.2366C39.3178 18.0431 39.2348 17.8634 39.1006 17.7371C38.9663 17.6108 38.7919 17.5482 38.6156 17.5631C38.4393 17.5779 38.2756 17.6691 38.1605 17.8164Z" fill="#4D4F5C"/>
</svg>
