<svg width="30" height="30" viewBox="0 0 30 30" fill="none" xmlns="http://www.w3.org/2000/svg">
<path d="M8.18204 14.3182C8.18204 13.9413 7.87707 13.6364 7.5002 13.6364C7.12332 13.6364 6.81836 13.9413 6.81836 14.3182C6.81836 16.1086 8.79324 18.5669 9.01831 18.8419C9.1535 19.0057 9.34922 19.0909 9.54629 19.0909C9.6981 19.0909 9.85125 19.0403 9.97839 18.9364C10.2694 18.6974 10.3113 18.268 10.0729 17.9763C9.34194 17.0854 8.18204 15.3049 8.18204 14.3182Z" fill="#4D4F5C"/>
<path d="M22.5005 13.6364C22.1236 13.6364 21.8186 13.9413 21.8186 14.3182C21.8186 15.3016 20.6587 17.0841 19.9277 17.977C19.6893 18.268 19.7319 18.6975 20.0229 18.9364C20.1494 19.0403 20.3026 19.0909 20.455 19.0909C20.6521 19.0909 20.8472 19.0057 20.9824 18.8419C21.2074 18.5669 23.1823 16.1087 23.1823 14.3182C23.1823 13.9413 22.8774 13.6364 22.5005 13.6364Z" fill="#4D4F5C"/>
<path d="M15.0002 13.6364C14.6233 13.6364 14.3184 13.9413 14.3184 14.3182V18.4091C14.3184 18.786 14.6233 19.0909 15.0002 19.0909C15.3771 19.0909 15.682 18.786 15.682 18.4091V14.3182C15.682 13.9413 15.377 13.6364 15.0002 13.6364Z" fill="#4D4F5C"/>
<path d="M22.5 2.7273C22.0868 2.7273 21.655 2.78195 21.2066 2.86524C19.7049 1.11471 17.482 0 15 0C12.518 0 10.295 1.11471 8.7934 2.86517C8.34493 2.78195 7.91315 2.72723 7.50003 2.72723C3.36445 2.7273 0 6.09175 0 10.2273C0 13.0611 1.59801 15.6372 4.10688 16.9109L4.09359 27.2148C4.09295 27.9585 4.38187 28.6577 4.90723 29.1837C5.43323 29.7104 6.13169 30 6.87547 30H23.1272C24.6613 30 25.9091 28.7522 25.9091 27.2181V16.901C28.4086 15.6239 30 13.0517 30 10.2273C29.9999 6.09175 26.6355 2.7273 22.5 2.7273ZM24.5454 27.2182C24.5454 27.9999 23.9089 28.6364 23.1272 28.6364H6.8754C6.49655 28.6364 6.14032 28.4886 5.87198 28.2203C5.60428 27.952 5.4565 27.5958 5.45714 27.2163L5.46072 24.5455H24.5454V27.2182ZM24.9676 15.8396C24.9316 15.8543 24.8976 15.8716 24.8657 15.8922C24.7798 15.9455 24.7092 16.0161 24.6566 16.0973C24.6033 16.1778 24.5673 16.2711 24.5527 16.3709C24.5467 16.4089 24.5447 16.4469 24.5454 16.4855V23.1818H5.46244L5.4712 16.4947C5.47184 16.4575 5.46986 16.4195 5.46455 16.3829C5.44991 16.2797 5.41195 16.1838 5.35665 16.1006C5.30469 16.0226 5.2368 15.9547 5.15422 15.9028C5.12028 15.8815 5.08429 15.8628 5.04702 15.8475C2.80917 14.8689 1.36361 12.6649 1.36361 10.2273C1.36361 6.84346 4.11622 4.09091 7.49997 4.09091C7.63222 4.09091 7.77182 4.10689 7.9088 4.11769C7.21897 5.31659 6.81813 6.702 6.81813 8.18182C6.81813 8.5587 7.12309 8.86366 7.49997 8.86366C7.87684 8.86366 8.18181 8.5587 8.18181 8.18182C8.18181 4.42247 11.2407 1.36362 15 1.36362C18.7593 1.36362 21.8181 4.42247 21.8181 8.18182C21.8181 8.5587 22.1231 8.86366 22.5 8.86366C22.8768 8.86366 23.1818 8.5587 23.1818 8.18182C23.1818 6.702 22.781 5.31665 22.0911 4.11769C22.2281 4.10689 22.3677 4.09091 22.5 4.09091C25.8838 4.09091 28.6363 6.84352 28.6363 10.2273C28.6363 12.6563 27.1968 14.8575 24.9676 15.8396Z" fill="#4D4F5C"/>
</svg>
