<svg width="30" height="30" viewBox="0 0 30 30" fill="none" xmlns="http://www.w3.org/2000/svg">
<path d="M27.5031 5.60762C27.349 5.41584 27.0631 5.38092 26.8644 5.52969C26.6658 5.67845 26.6296 5.95449 26.7837 6.14627C28.1823 7.88697 28.9871 10.0193 29.0804 12.2051L22.9676 10.624C23.2229 9.06025 23.3234 7.47183 23.2658 5.89613C23.2325 4.98406 23.1451 4.06719 23.0066 3.16027C23.8655 3.57143 24.6696 4.09244 25.3892 4.70838C25.5773 4.86939 25.865 4.85264 26.0318 4.67111C26.1986 4.48947 26.1813 4.21174 25.9932 4.05078C24.804 3.03301 23.4124 2.26596 21.9116 1.77699L22.3514 0.587248C22.436 0.358674 22.3125 0.107248 22.0758 0.0256858C21.839 -0.0558767 21.5785 0.0632443 21.494 0.291818L21.036 1.53067C15.883 0.29633 10.4828 2.55816 7.87346 7.05494C7.83831 7.11793 7.80541 7.19838 7.81245 7.30619L7.97379 9.59703C8.00462 10.0344 8.32 10.4044 8.75866 10.5179L13.2541 11.6807C13.6858 11.7925 14.1565 11.6283 14.4107 11.262L14.9951 10.4222L15.0662 11.4316C15.097 11.8689 15.4124 12.239 15.8511 12.3525L17.6589 12.8201L15.1132 21.9916L10.8549 21.9798H10.8536C10.6028 21.9798 10.3992 22.1757 10.3984 22.418C10.3976 22.6607 10.6009 22.858 10.8523 22.8587L19.7674 22.8836H19.7718C20.2176 22.8836 20.6519 22.7075 20.964 22.4L24.1725 19.2396C24.8346 18.5874 25.8421 18.3524 26.7395 18.6413L27.7153 18.9553L21.6312 24.8691C21.3767 25.1166 21.0235 25.2585 20.6623 25.2585H3.04048C2.99441 24.5906 3.18603 23.9406 3.68393 23.4616C4.09709 23.0641 4.64524 22.8454 5.22811 22.8454H5.23564L8.72752 22.8577H8.72922C8.97983 22.8577 9.18347 22.662 9.18444 22.4199C9.18535 22.1772 8.98226 21.9797 8.73086 21.9788L5.23879 21.9665C4.40743 21.9635 3.62881 22.2737 3.04121 22.8391C2.30101 23.5514 2.13003 24.5283 2.13003 25.5222C2.13003 25.8614 2.41591 26.1374 2.76734 26.1374H3.86213L2.92042 28.1353C2.76813 28.4584 2.76297 28.8103 2.87702 29.1211H0.455225C0.20382 29.1211 0 29.3178 0 29.5605C0 29.8033 0.20382 30 0.455225 30H28.4681C28.7196 30 28.9234 29.8033 28.9234 29.5605C28.9234 29.3178 28.7196 29.1211 28.4681 29.1211H24.1945C24.3085 28.8103 24.3034 28.4583 24.1511 28.1352L22.7068 25.0709L28.6715 19.2729C29.0017 18.9569 28.8579 18.3926 28.4208 18.2558L27.0274 17.8074C25.802 17.4132 24.4262 17.7338 23.5222 18.6243L20.3137 21.7848C20.1719 21.9245 19.9744 22.0045 19.7719 22.0045H19.7699L16.0549 21.9942L18.5382 13.0475L20.3464 13.5152C20.778 13.6271 21.2488 13.4627 21.5031 13.0965L22.0875 12.2567L22.1585 13.266C22.1894 13.7034 22.5048 14.0735 22.9434 14.187L27.4388 15.3498C27.8705 15.4616 28.3412 15.2974 28.5955 14.931L29.9217 13.025C29.9609 12.9639 29.9991 12.8859 29.999 12.7781C30.0333 10.1999 29.1472 7.65365 27.5031 5.60762ZM4.16331 29.1211C4.09812 29.1211 4.03475 29.1077 3.97491 29.0815C3.74644 28.9811 3.64514 28.7199 3.74917 28.4992L4.86247 26.1373H5.86336L4.57811 28.8635C4.50436 29.02 4.34157 29.1211 4.16331 29.1211ZM13.1346 29.1211H5.45694L6.86358 26.1374H13.9626L13.1346 29.1211ZM14.0771 29.1211L14.9052 26.1374H20.2081L21.6147 29.1211H14.0771ZM23.3224 28.4992C23.4264 28.72 23.3251 28.9812 23.0958 29.0818C23.0368 29.1079 22.974 29.1211 22.9089 29.1211C22.7306 29.1211 22.5674 29.0198 22.4935 28.8635L21.1804 26.0783C21.4782 26.0104 21.7609 25.8855 22.0083 25.7111L23.3224 28.4992ZM13.6549 10.7718C13.6188 10.8238 13.5523 10.8478 13.4897 10.8317L8.99422 9.66886C8.93158 9.65269 8.88654 9.59978 8.88211 9.53732L8.764 7.8599L14.626 9.37619L13.6549 10.7718ZM15.0731 8.58189L8.96509 7.00197C11.1698 3.63219 15.1357 1.76891 19.1688 2.11619C18.461 2.86168 17.811 3.65949 17.2316 4.49791C16.3517 5.77086 15.627 7.14312 15.0731 8.58189ZM20.7473 12.6064C20.7111 12.6584 20.6447 12.6825 20.582 12.6662L16.0866 11.5034C16.024 11.4873 15.979 11.4343 15.9745 11.3719L15.8564 9.69447L21.7184 11.2108L20.7473 12.6064ZM22.083 10.3951L15.9566 8.81046C16.4821 7.46386 17.1641 6.17908 17.9889 4.98576C18.6591 4.01609 19.4281 3.10326 20.2748 2.26748C20.8663 2.37834 21.451 2.53889 22.0158 2.74479C22.2022 3.79561 22.3171 4.86476 22.356 5.92719C22.4104 7.41588 22.3183 8.91652 22.083 10.3951ZM27.8396 14.441C27.8035 14.4929 27.7371 14.517 27.6744 14.5008L23.179 13.338C23.1163 13.3218 23.0712 13.2689 23.0669 13.2065L22.9488 11.5291L28.8107 13.0454L27.8396 14.441Z" fill="#4D4F5C"/>
</svg>
