<svg width="31" height="30" viewBox="0 0 31 30" fill="none" xmlns="http://www.w3.org/2000/svg">
<path d="M23.2288 28.9458L20.082 25.7985C19.9721 25.6886 19.8231 25.6269 19.6677 25.6269C19.6674 25.6269 19.6671 25.6269 19.6669 25.6269L17.9785 25.6293C17.9748 25.6293 17.9711 25.6293 17.9674 25.6293C17.0354 25.6293 16.1018 25.4579 15.228 25.1309L16.2411 24.4515C16.6558 24.1734 16.9347 23.7499 17.0264 23.2591C17.118 22.7682 17.0108 22.2726 16.7244 21.8635C16.3683 21.3549 15.7948 21.0788 15.2108 21.0788C15.2013 21.0788 15.1918 21.0788 15.1823 21.079L17.516 18.7452C18.224 18.0372 18.224 16.8851 17.516 16.177C17.3437 16.0048 17.1429 15.8715 16.9243 15.7814C17.0863 15.5058 17.173 15.1911 17.173 14.8631C17.173 14.378 16.9841 13.9219 16.6411 13.5789C16.2981 13.2359 15.8421 13.047 15.357 13.047C15.0289 13.047 14.7143 13.1337 14.4387 13.2958C14.3486 13.0771 14.2153 12.8763 14.043 12.704C13.7 12.361 13.244 12.1721 12.7589 12.1721C12.2738 12.1721 11.8178 12.361 11.4748 12.704L10.6368 13.5419C10.5477 13.3456 10.4234 13.1646 10.2664 13.0076C9.92336 12.6645 9.46733 12.4757 8.98223 12.4757C8.49713 12.4757 8.0411 12.6646 7.69809 13.0076L7.32666 13.379L5.81665 11.8774C5.37801 11.4388 5.37801 10.7251 5.81665 10.2864C6.22756 9.87551 6.87983 9.84961 7.32122 10.2085L8.7836 11.671C8.89803 11.7854 9.04797 11.8426 9.19792 11.8426C9.34786 11.8426 9.49786 11.7853 9.61223 11.671C9.84104 11.4421 9.84104 11.0711 9.61223 10.8423L7.08942 8.31947C6.65079 7.88078 6.65079 7.16704 7.08942 6.7284C7.52805 6.2897 8.24184 6.28976 8.68047 6.7284L13.1006 11.1571C13.215 11.2715 13.365 11.3287 13.5149 11.3287C13.6649 11.3287 13.8149 11.2715 13.9292 11.1571C14.1581 10.9283 14.1581 10.5573 13.9292 10.3284L10.5695 6.96014C10.2106 6.51869 10.2366 5.86647 10.6475 5.45561C11.0862 5.01697 11.7999 5.01697 12.2385 5.45561L13.4695 6.68662C13.6983 6.91549 14.0693 6.91549 14.2981 6.68662C14.5269 6.45781 14.527 6.08679 14.2981 5.85798L13.0672 4.62697C12.1715 3.73141 10.7144 3.73147 9.81883 4.62697C9.52288 4.92293 9.32541 5.28035 9.22504 5.65846C8.83709 5.3785 8.3728 5.22703 7.88495 5.22703C7.27141 5.22703 6.69461 5.46598 6.26079 5.89976C5.45465 6.7059 5.37461 7.96691 6.01973 8.86399C5.64157 8.9643 5.28403 9.16183 4.98801 9.45785C4.14286 10.3031 4.09575 11.6482 4.84581 12.5497C4.47602 12.6518 4.12686 12.8474 3.83676 13.1375C2.94127 14.033 2.94127 15.4902 3.83676 16.3858L4.09827 16.6473C3.1095 17.8346 2.57213 19.3159 2.57436 20.8802L2.57577 21.8507L0.171606 24.2551C-0.0572021 24.4839 -0.0572021 24.8549 0.171606 25.0838C0.28604 25.1982 0.435981 25.2554 0.585923 25.2554C0.735864 25.2554 0.885864 25.1982 1.00024 25.0838L3.57637 22.5076C3.68647 22.3975 3.74823 22.2481 3.74799 22.0924L3.74624 20.8786C3.74413 19.4223 4.3102 18.053 5.33999 17.0232L8.24776 14.1153C8.24776 14.1153 8.24776 14.1153 8.24782 14.1153L8.52672 13.8364C8.64836 13.7147 8.81008 13.6477 8.98217 13.6477C9.15426 13.6477 9.31598 13.7147 9.43762 13.8364C9.55932 13.958 9.62629 14.1197 9.62629 14.2918C9.62629 14.4395 9.57661 14.5795 9.48555 14.6932L8.711 15.4678C8.48219 15.6966 8.48219 16.0676 8.711 16.2965C8.71153 16.297 8.71212 16.2974 8.71258 16.2979C8.71311 16.2985 8.71352 16.299 8.71405 16.2995C8.82848 16.4139 8.97842 16.4711 9.12836 16.4711C9.27831 16.4711 9.42831 16.4139 9.54268 16.2995L12.3033 13.5327C12.4249 13.411 12.5866 13.3441 12.7587 13.3441C12.9308 13.3441 13.0925 13.4111 13.2142 13.5327C13.448 13.7665 13.4638 14.1367 13.2623 14.3894L10.4505 17.2074C10.2217 17.4362 10.2217 17.8072 10.4505 18.0361C10.5649 18.1504 10.7148 18.2077 10.8648 18.2077C11.0147 18.2077 11.1647 18.1504 11.2791 18.0361L14.9013 14.4077C15.023 14.286 15.1847 14.219 15.3568 14.219C15.5289 14.219 15.6906 14.286 15.8122 14.4077C16.0633 14.6588 16.0633 15.0674 15.8122 15.3186L12.1839 18.9408C11.9551 19.1696 11.955 19.5406 12.1839 19.7695C12.4128 19.9982 12.7838 19.9983 13.0125 19.7695L15.8306 16.9576C16.0831 16.756 16.4533 16.7719 16.6871 17.0058C16.9383 17.2569 16.9383 17.6656 16.6871 17.9167L12.7312 21.8728C12.4525 22.1514 12.4267 22.5787 12.6699 22.8887C12.9131 23.1988 13.3343 23.2756 13.6713 23.0713L14.8665 22.3468C15.1677 22.164 15.5621 22.2471 15.7642 22.5358C15.8685 22.6848 15.9075 22.8652 15.8741 23.0441C15.8407 23.2228 15.7392 23.377 15.5882 23.4783L12.8232 25.3324C11.9235 25.9358 10.8758 26.2545 9.79264 26.2545C9.79012 26.2545 9.78749 26.2545 9.78497 26.2545L7.90698 26.2518C7.90668 26.2518 7.90645 26.2518 7.90616 26.2518C7.75077 26.2518 7.6017 26.3135 7.49184 26.4234L4.91565 28.9996C4.68684 29.2284 4.68684 29.5994 4.91565 29.8283C5.03008 29.9427 5.18002 29.9999 5.32997 29.9999C5.47991 29.9999 5.62991 29.9427 5.74428 29.8283L8.1485 27.4241L9.78333 27.4264C9.78643 27.4264 9.78942 27.4264 9.79258 27.4264C11.1089 27.4264 12.3825 27.039 13.4758 26.3058L14.0679 25.9088C15.2778 26.4926 16.624 26.8013 17.9671 26.8013C17.9713 26.8013 17.9757 26.8013 17.9799 26.8013L19.425 26.7993L22.4002 29.7745C22.5146 29.8888 22.6646 29.9461 22.8145 29.9461C22.9645 29.9461 23.1145 29.8888 23.2288 29.7745C23.4576 29.5457 23.4576 29.1746 23.2288 28.9458ZM6.11454 14.5914C6.11448 14.5914 6.11448 14.5914 6.11442 14.5915L4.90704 15.7989L4.66545 15.5573C4.22682 15.1186 4.22682 14.4049 4.66545 13.9662C5.07637 13.5553 5.72864 13.5294 6.17002 13.8883L6.49381 14.2121L6.11454 14.5914Z" fill="#4D4F5C"/>
<path d="M29.8283 22.3467C29.7193 22.2372 29.5682 22.175 29.4141 22.175C29.26 22.175 29.1088 22.2372 28.9998 22.3467C28.8908 22.4557 28.8281 22.6063 28.8281 22.761C28.8281 22.9151 28.8908 23.0663 28.9998 23.1752C29.1088 23.2842 29.26 23.3469 29.4141 23.3469C29.5682 23.3469 29.7193 23.2842 29.8283 23.1752C29.9373 23.0656 30 22.9151 30 22.761C30 22.6062 29.9373 22.4557 29.8283 22.3467Z" fill="#4D4F5C"/>
<path d="M28.2536 20.7708L26.854 19.3712L26.8574 17.0021C26.8599 15.2122 26.3344 13.4803 25.3375 11.9937L22.7585 8.14763C22.4062 7.62228 21.8698 7.26901 21.248 7.15288C20.6262 7.03674 19.9985 7.17262 19.4804 7.53544C18.6315 8.12988 18.294 9.20239 18.5941 10.1531L17.0628 8.62172C16.834 8.39297 16.463 8.39297 16.2341 8.62172C16.0053 8.85053 16.0053 9.22155 16.2341 9.45042L19.5238 12.7401C19.8281 13.0445 20.2949 13.0727 20.6336 12.8069C20.9723 12.5413 21.0562 12.0813 20.833 11.7131L19.8252 10.0507C19.5088 9.52871 19.6526 8.84555 20.1526 8.49545C20.4106 8.3148 20.7234 8.24713 21.0329 8.30496C21.3425 8.36279 21.6097 8.53875 21.7851 8.80038L24.3641 12.6464C25.2308 13.9389 25.6877 15.4445 25.6855 17.0005L25.6818 19.6127C25.6815 19.7684 25.7433 19.9178 25.8534 20.0279L27.4249 21.5995C27.5394 21.7139 27.6893 21.7711 27.8392 21.7711C27.9892 21.7711 28.1392 21.7139 28.2536 21.5995C28.4824 21.3707 28.4824 20.9997 28.2536 20.7708Z" fill="#4D4F5C"/>
<path d="M15.6838 7.24456C15.5754 7.13557 15.4242 7.07288 15.2701 7.07288C15.1154 7.07288 14.9648 7.13557 14.8553 7.24456C14.7463 7.35354 14.6836 7.50472 14.6836 7.65882C14.6836 7.81351 14.7463 7.9641 14.8553 8.07308C14.9648 8.18207 15.1154 8.24477 15.2701 8.24477C15.4242 8.24477 15.5748 8.18207 15.6838 8.07308C15.7934 7.9641 15.8561 7.81292 15.8561 7.65882C15.8561 7.50472 15.7934 7.35354 15.6838 7.24456Z" fill="#4D4F5C"/>
<path d="M21.1217 16.3373C21.3505 16.1085 21.3505 15.7375 21.1217 15.5086C20.8929 15.2798 20.5219 15.2798 20.293 15.5086L20.0374 15.7642C18.9433 16.8584 18.9433 18.6389 20.0374 19.7331C20.1519 19.8475 20.3018 19.9047 20.4517 19.9047C20.6017 19.9047 20.7517 19.8475 20.8661 19.7331C21.0949 19.5043 21.0949 19.1333 20.8661 18.9044C20.2288 18.2671 20.2288 17.2301 20.8661 16.5928L21.1217 16.3373Z" fill="#4D4F5C"/>
<path d="M27.9681 3.16406C27.5956 3.16406 27.2315 3.26977 26.9167 3.46307C26.6019 3.26977 26.2378 3.16406 25.8653 3.16406C24.7442 3.16406 23.832 4.0929 23.832 5.2345C23.832 5.8815 24.2972 6.65852 25.2542 7.61009C25.8985 8.25076 26.534 8.73839 26.5608 8.75884C26.6658 8.83917 26.7913 8.87931 26.9167 8.87931C27.0421 8.87931 27.1675 8.83917 27.2726 8.75884C27.2994 8.73839 27.9349 8.2507 28.5792 7.61009C29.5362 6.65858 30.0014 5.8815 30.0014 5.2345C30.0014 4.09284 29.0892 3.16406 27.9681 3.16406ZM26.9165 7.54376C25.9373 6.73047 25.0039 5.69276 25.0039 5.2345C25.0039 4.73902 25.3903 4.33595 25.8653 4.33595C26.1015 4.33595 26.322 4.43386 26.486 4.61176C26.597 4.73199 26.7531 4.80037 26.9167 4.80037C27.0803 4.80037 27.2364 4.73199 27.3474 4.61176C27.5114 4.43392 27.7319 4.33595 27.9681 4.33595C28.4431 4.33595 28.8295 4.73902 28.8295 5.2345C28.8295 5.69159 27.8958 6.72959 26.9165 7.54376Z" fill="#4D4F5C"/>
<path d="M4.13607 2.77228e-09C3.76359 2.77228e-09 3.39949 0.105704 3.08467 0.299007C2.76984 0.105704 2.40574 2.77228e-09 2.03326 2.77228e-09C0.912129 -5.85917e-05 0 0.928722 0 2.07038C0 2.71738 0.465176 3.4944 1.42213 4.44597C2.06643 5.08664 2.70205 5.57432 2.72877 5.59477C2.83377 5.67511 2.95922 5.71524 3.08467 5.71524C3.21012 5.71524 3.33551 5.67511 3.44057 5.59477C3.46734 5.57432 4.10291 5.08664 4.74721 4.44603C5.70416 3.49445 6.16934 2.71743 6.16934 2.07043C6.16934 0.928781 5.25721 2.77228e-09 4.13607 2.77228e-09ZM3.08449 4.37964C2.10521 3.56635 1.17188 2.5287 1.17188 2.07038C1.17188 1.5749 1.5583 1.17183 2.03326 1.17183C2.26951 1.17183 2.48994 1.26974 2.654 1.44763C2.76498 1.56787 2.92107 1.63625 3.08467 1.63625C3.24826 1.63625 3.40441 1.56787 3.51533 1.44763C3.67939 1.2698 3.89982 1.17183 4.13607 1.17183C4.61103 1.17183 4.99746 1.5749 4.99746 2.07038C4.99746 2.52741 4.06377 3.56547 3.08449 4.37964Z" fill="#4D4F5C"/>
</svg>
