<svg width="30" height="30" viewBox="0 0 30 30" fill="none" xmlns="http://www.w3.org/2000/svg">
<path d="M28.6944 5.74207C27.8889 4.85159 26.7778 4.29887 25.5556 4.29887H20.75V2.61003C20.75 1.90379 20.5 1.25896 20.0833 0.798362L20.0556 0.767656C19.6111 0.276356 19.0278 0 18.3889 0H11.6389C10.9722 0 10.3889 0.307062 9.97222 0.767656C9.52778 1.25896 9.27778 1.90379 9.27778 2.61003V4.29887H4.44444C3.22222 4.29887 2.11111 4.85159 1.30556 5.74207C0.5 6.63255 0 7.8608 0 9.21187V25.087C0 26.4381 0.5 27.6663 1.30556 28.5568C2.11111 29.4473 3.22222 30 4.44444 30H25.5556C26.7778 30 27.8889 29.4473 28.6944 28.5568C29.5 27.6663 30 26.4381 30 25.087V9.21187C30 7.8608 29.5 6.63255 28.6944 5.74207ZM10.3333 2.61003H10.3611C10.3611 2.21085 10.5 1.87308 10.7222 1.62743C10.9444 1.38178 11.2778 1.22825 11.6111 1.22825H18.3333C18.6944 1.22825 19 1.38178 19.2222 1.62743L19.25 1.65814C19.4722 1.90379 19.6111 2.24156 19.6111 2.61003V4.29887H18.5V3.74616C18.5 3.31627 18.3333 2.91709 18.0278 2.61003L18 2.57932C17.7222 2.30297 17.3333 2.11873 16.8889 2.11873H13.0556C12.6389 2.11873 12.25 2.30297 11.9444 2.57932C11.6389 2.88639 11.4444 3.28557 11.4444 3.74616V4.29887H10.3333V2.61003ZM17.4722 3.77687V4.29887H17.4444H12.5556V3.74616C12.5556 3.65404 12.6111 3.56192 12.6667 3.50051C12.75 3.40839 12.8889 3.34698 13.0556 3.34698H16.9444C17.0833 3.34698 17.2222 3.40839 17.3333 3.50051L17.3611 3.53122C17.4167 3.59263 17.4722 3.68475 17.4722 3.77687ZM27.9444 27.697C27.3333 28.3726 26.5 28.7717 25.5833 28.7717H4.44444C3.52778 28.7717 2.69444 28.3419 2.08333 27.697C1.47222 27.0215 1.11111 26.1003 1.11111 25.087V9.21187C1.11111 8.19857 1.5 7.27738 2.08333 6.60184C2.69444 5.92631 3.52778 5.52712 4.44444 5.52712H9.83333H12.0278H18H20.1944H25.5556C26.4722 5.52712 27.3056 5.95701 27.9167 6.60184C28.5278 7.27738 28.8889 8.19857 28.8889 9.21187V25.087H28.9167C28.9167 26.1003 28.5278 27.0215 27.9444 27.697Z" fill="#4D4F5C"/>
<path d="M22.6931 19.3757L21.5543 18.1167C21.4154 17.9632 21.1931 17.9018 20.9987 17.9632L18.9154 18.6694L16.4431 15.7831L21.8598 12.4668C21.9154 12.4361 21.9709 12.4054 22.0265 12.344C22.2487 12.0983 22.2487 11.7298 22.0265 11.4842L20.5543 9.76464C20.4154 9.61111 20.1931 9.54969 19.9987 9.61111L13.1931 11.9141L10.8876 9.21193L10.8598 9.15051C10.4431 8.68992 9.88759 8.47498 9.33203 8.47498C8.77648 8.47498 8.2487 8.68992 7.80425 9.15051L7.7487 9.21193L7.69314 9.27334C7.30425 9.73393 7.08203 10.3481 7.08203 10.9622C7.08203 11.5763 7.27648 12.1904 7.69314 12.651C7.72092 12.6817 7.72092 12.6817 7.7487 12.7124L10.1931 15.2611L8.13759 22.7841C8.08203 22.999 8.10981 23.2447 8.27648 23.3982L9.77648 25.0563C9.80425 25.0871 9.85981 25.1178 9.88759 25.1485C10.1654 25.302 10.4987 25.2099 10.6376 24.9028L13.6654 18.8537L16.2765 21.5865L15.6654 23.8588C15.6098 24.0737 15.6376 24.3194 15.8043 24.4729L16.9709 25.7626C16.9987 25.7933 17.0543 25.824 17.082 25.8547C17.3598 26.0082 17.6931 25.9161 17.832 25.6091L19.3043 22.692V22.6613L19.4987 22.2007L19.8876 21.9857C19.9154 21.9857 19.9154 21.955 19.9431 21.955L22.5265 20.3583C22.582 20.3276 22.6376 20.2969 22.6931 20.2355C22.9154 19.9898 22.9154 19.6213 22.6931 19.3757ZM19.4431 20.911L18.8876 21.2181C18.7765 21.2795 18.6931 21.3716 18.6376 21.4944L18.3598 22.1086L17.2487 24.3194L16.832 23.8588L17.4709 21.5558C17.5265 21.3102 17.4709 21.0645 17.3043 20.911L13.9431 17.4105C13.7209 17.1648 13.3598 17.1955 13.1654 17.4412C13.1376 17.4719 13.1098 17.5333 13.082 17.5947L10.0543 23.5517L9.30425 22.7227L11.3876 15.1996C11.4431 14.954 11.3876 14.7083 11.2209 14.5548L8.55425 11.7605L8.52648 11.7298C8.33203 11.5149 8.22092 11.2078 8.22092 10.9315C8.22092 10.6244 8.33203 10.3174 8.52648 10.0717C8.52648 10.0717 8.52648 10.0717 8.55425 10.041C8.58203 10.0103 8.55425 10.041 8.58203 10.0103C8.80425 9.79534 9.08203 9.67252 9.35981 9.67252C9.63759 9.67252 9.88759 9.76464 10.082 9.97958L10.1098 10.0103L12.6654 12.9888C12.8043 13.173 13.0265 13.2344 13.2209 13.1423L20.0543 10.8701L20.8043 11.6991L15.332 15.0768C15.0543 15.2304 14.9709 15.5988 15.1098 15.9059C15.1376 15.9366 15.1654 15.998 15.1931 16.0287L18.3876 19.7749C18.5265 19.9591 18.7487 20.0205 18.9431 19.9284L21.0265 19.2222L21.4431 19.6828L19.4431 20.911Z" fill="#4D4F5C"/>
</svg>
