<svg width="30" height="30" viewBox="0 0 30 30" fill="none" xmlns="http://www.w3.org/2000/svg">
<path d="M25.0381 10.1425V5.99008L29.4917 4.24809C29.6581 4.18303 29.7954 4.07971 29.8854 3.95185C29.9754 3.82399 30.0138 3.67762 29.9956 3.53218C29.9774 3.38673 29.9034 3.24908 29.7834 3.13749C29.6634 3.0259 29.5031 2.94566 29.3238 2.90739L15.8124 0.0250852C15.6545 -0.00854412 15.4881 -0.00835753 15.3303 0.0256256L2.07969 2.88457C1.84732 2.89598 1.62922 2.97661 1.46976 3.11006C1.3103 3.2435 1.22148 3.41973 1.22137 3.60287V7.20575H0.916027C0.673082 7.20575 0.440087 7.28167 0.268298 7.4168C0.0965096 7.55194 0 7.73522 0 7.92633C0 8.11744 0.0965096 8.30072 0.268298 8.43585C0.440087 8.57099 0.673082 8.64691 0.916027 8.64691H1.22137V10.3283C1.22137 10.5194 1.31788 10.7026 1.48967 10.8378C1.66146 10.9729 1.89445 11.0488 2.1374 11.0488C2.38034 11.0488 2.61334 10.9729 2.78513 10.8378C2.95691 10.7026 3.05342 10.5194 3.05342 10.3283V8.64691H3.35877C3.60171 8.64691 3.83471 8.57099 4.0065 8.43585C4.17828 8.30072 4.27479 8.11744 4.27479 7.92633C4.27479 7.73522 4.17828 7.55194 4.0065 7.4168C3.83471 7.28167 3.60171 7.20575 3.35877 7.20575H3.05342V4.74156L6.10685 5.94931V10.143C4.70827 11.1051 3.55726 12.2693 2.71617 13.5725C1.69692 15.1536 1.16893 16.9022 1.17557 18.6749C1.17557 24.9199 7.63356 30 15.5725 30C23.5114 30 29.9694 24.9199 29.9694 18.6749C29.9715 17.0579 29.5324 15.4594 28.6817 13.9874C27.8309 12.5154 26.5884 11.2042 25.0381 10.1425ZM7.9389 9.22337V5.98023C12.3984 4.40697 18.7464 4.40697 23.206 5.98023V9.22337C20.9595 8.5378 18.3031 8.16652 15.5725 8.16652C12.8419 8.16652 10.1855 8.5378 7.9389 9.22337ZM15.5738 1.46744L26.5174 3.80199L24.1388 4.73231C21.7134 3.84792 18.692 3.36268 15.5725 3.36268C12.4755 3.36268 9.47478 3.84048 7.05837 4.71262L4.75571 3.80169L15.5738 1.46744ZM15.5725 28.5588C8.64417 28.5588 3.00762 24.125 3.00762 18.6749C2.99938 15.5273 4.86655 12.6521 8.04577 10.7486C12.4477 9.22991 18.633 9.22421 23.0484 10.7314C24.6239 11.6527 25.9044 12.8504 26.7878 14.2295C27.6713 15.6085 28.1334 17.1307 28.1373 18.6749C28.1373 24.125 22.5008 28.5588 15.5725 28.5588Z" fill="#4D4F5C"/>
<path d="M14.6576 14.5917H17.482C17.8666 14.592 18.2352 14.7123 18.5071 14.9262C18.779 15.1401 18.932 15.4301 18.9324 15.7326C18.9324 15.9237 19.0289 16.107 19.2007 16.2421C19.3725 16.3773 19.6055 16.4532 19.8484 16.4532C20.0914 16.4532 20.3244 16.3773 20.4962 16.2421C20.6679 16.107 20.7645 15.9237 20.7645 15.7326C20.7635 15.048 20.4173 14.3917 19.802 13.9077C19.1866 13.4236 18.3523 13.1513 17.482 13.1505H16.4897V11.9496C16.4897 11.7585 16.3932 11.5752 16.2214 11.4401C16.0496 11.3049 15.8166 11.229 15.5736 11.229C15.3307 11.229 15.0977 11.3049 14.9259 11.4401C14.7541 11.5752 14.6576 11.7585 14.6576 11.9496V13.1505C13.5239 13.1505 12.4366 13.5048 11.6349 14.1355C10.8332 14.7661 10.3828 15.6214 10.3828 16.5132C10.3828 17.4051 10.8332 18.2604 11.6349 18.891C12.4366 19.5216 13.5239 19.8759 14.6576 19.8759H16.4897C17.1375 19.8759 17.7588 20.0784 18.2169 20.4387C18.675 20.7991 18.9324 21.2878 18.9324 21.7975C18.9324 22.3071 18.675 22.7958 18.2169 23.1562C17.7588 23.5166 17.1375 23.719 16.4897 23.719H13.7416C13.3368 23.7186 12.9488 23.592 12.6625 23.3668C12.3763 23.1417 12.2153 22.8364 12.2149 22.518C12.2149 22.3269 12.1184 22.1436 11.9466 22.0085C11.7748 21.8734 11.5418 21.7975 11.2988 21.7975C11.0559 21.7975 10.8229 21.8734 10.6511 22.0085C10.4793 22.1436 10.3828 22.3269 10.3828 22.518C10.3838 23.2185 10.738 23.8901 11.3677 24.3854C11.9973 24.8808 12.8511 25.1594 13.7416 25.1602H14.6576V25.8807C14.6576 26.0718 14.7541 26.2551 14.9259 26.3903C15.0977 26.5254 15.3307 26.6013 15.5736 26.6013C15.8166 26.6013 16.0496 26.5254 16.2214 26.3903C16.3932 26.2551 16.4897 26.0718 16.4897 25.8807V25.1602C17.6234 25.1602 18.7107 24.8059 19.5124 24.1752C20.3141 23.5446 20.7645 22.6893 20.7645 21.7975C20.7645 20.9056 20.3141 20.0503 19.5124 19.4197C18.7107 18.7891 17.6234 18.4348 16.4897 18.4348H14.6576C14.0098 18.4348 13.3884 18.2323 12.9303 17.872C12.4722 17.5116 12.2149 17.0229 12.2149 16.5132C12.2149 16.0036 12.4722 15.5149 12.9303 15.1545C13.3884 14.7941 14.0098 14.5917 14.6576 14.5917Z" fill="#4D4F5C"/>
</svg>
