<svg width="30" height="15" viewBox="0 0 30 15" fill="none" xmlns="http://www.w3.org/2000/svg">
<path d="M11.5397 2.44593C9.23212 1.8027 6.79084 1.71329 4.28374 2.18018C3.74673 2.28022 3.2759 2.65273 2.95791 3.22929C2.64138 3.80311 2.51885 4.50321 2.61289 5.20048C2.65571 5.51778 2.69796 5.81441 2.73845 6.08197C2.92147 7.29122 3.12003 8.38134 3.32864 9.32211C3.64701 10.7578 4.52607 11.8321 5.62359 12.1258L5.69919 12.1458C6.11349 12.2531 6.53607 12.3075 6.95511 12.3075C9.74981 12.3075 12.2331 9.95687 13.1345 6.4583L13.1892 6.24552C13.3925 5.45535 13.3289 4.58664 13.0148 3.86197C12.7002 3.13556 12.1624 2.61944 11.5397 2.44593ZM12.5899 5.98401L12.5364 6.19189C11.7219 9.35316 9.479 11.4772 6.95517 11.4772C6.57699 11.4772 6.19553 11.428 5.82253 11.3315L5.74889 11.3121C4.88259 11.0803 4.18749 10.2287 3.935 9.08974C3.73151 8.17205 3.53737 7.10559 3.35788 5.91992C3.31822 5.658 3.27679 5.36718 3.23479 5.05562C3.17094 4.582 3.25418 4.10646 3.46922 3.71661C3.68572 3.32401 4.00649 3.07039 4.37229 3.00223C6.80606 2.54904 9.17345 2.63513 11.4087 3.2581C11.8551 3.38254 12.2406 3.75247 12.4662 4.27292C12.6911 4.7917 12.7366 5.41376 12.5899 5.98401Z" fill="#4D4F5C"/>
<path d="M11.3403 3.68076C10.077 3.3286 8.74955 3.15002 7.39505 3.15002C7.03601 3.15002 6.66857 3.16298 6.30296 3.18846C6.12884 3.20058 5.99514 3.39601 6.00436 3.62497C6.01358 3.85394 6.16269 4.02927 6.33643 4.01749C6.69092 3.99275 7.04706 3.98021 7.39505 3.98021C8.70559 3.98021 9.98885 4.15272 11.2093 4.49285C11.3905 4.54333 11.5405 4.68711 11.6318 4.89773C11.7224 5.10669 11.7399 5.34728 11.6813 5.57516C11.6254 5.79234 11.7141 6.02795 11.8793 6.10134C11.9128 6.11628 11.9469 6.12334 11.9805 6.12334C12.1122 6.12334 12.2351 6.01417 12.2796 5.84107C12.3968 5.38547 12.3616 4.90454 12.1806 4.48671C11.9987 4.0673 11.7003 3.78105 11.3403 3.68076Z" fill="#4D4F5C"/>
<path d="M27.2613 6.08195C27.3017 5.81463 27.344 5.51809 27.3868 5.20046C27.4808 4.50319 27.3583 3.80309 27.0418 3.22935C26.7239 2.65279 26.253 2.2802 25.7159 2.18025C23.2089 1.71343 20.7676 1.80284 18.46 2.44599C17.8373 2.6195 17.2996 3.13562 16.9848 3.86195C16.6707 4.58662 16.6072 5.45533 16.8103 6.24533L16.8652 6.45828C17.7665 9.95685 20.2498 12.3074 23.0445 12.3074C23.4636 12.3074 23.8861 12.2531 24.3016 12.1455L24.3767 12.1256C25.4735 11.8322 26.3526 10.7579 26.6709 9.32217C26.8795 8.38198 27.0782 7.29187 27.2613 6.08195ZM26.0648 9.0898C25.8122 10.2287 25.1172 11.0803 24.2516 11.3119L24.1784 11.3312C23.8042 11.4281 23.4228 11.4772 23.0446 11.4772C20.5208 11.4772 18.2778 9.3533 17.4634 6.19195L17.4087 5.97951C17.2632 5.41374 17.3087 4.79168 17.5336 4.27281C17.7592 3.75229 18.1447 3.38244 18.5912 3.25799C19.8864 2.89703 21.2258 2.7163 22.5969 2.7163C23.592 2.7163 24.604 2.81152 25.6275 3.00213C25.9933 3.07029 26.3141 3.32399 26.5306 3.71651C26.7456 4.10636 26.8289 4.58189 26.7651 5.05535C26.723 5.36725 26.6815 5.65814 26.6419 5.91973C26.4623 7.10624 26.2681 8.17269 26.0648 9.0898Z" fill="#4D4F5C"/>
<path d="M25.5811 3.42996C24.5834 3.24425 23.5819 3.15002 22.6043 3.15002C22.2255 3.15002 21.8438 3.16422 21.4697 3.1922C21.2956 3.20523 21.1625 3.40132 21.1724 3.6302C21.1823 3.85909 21.3312 4.03459 21.5056 4.02106C21.8677 3.99399 22.2374 3.98021 22.6043 3.98021C23.5524 3.98021 24.5241 4.07161 25.4925 4.25193C25.5982 4.27161 25.6906 4.34458 25.7529 4.45748C25.8145 4.56923 25.8375 4.69982 25.8193 4.83514C25.7888 5.06086 25.9033 5.2763 26.0751 5.31631C26.0937 5.32063 26.1122 5.32279 26.1306 5.32279C26.2808 5.32279 26.414 5.18124 26.4411 4.98009C26.4893 4.62294 26.4264 4.2643 26.2642 3.97025C26.1005 3.67329 25.8579 3.48144 25.5811 3.42996Z" fill="#4D4F5C"/>
<path d="M29.9262 13.9691L27.4759 10.1265C27.5197 9.97929 27.5592 9.82902 27.5933 9.67527C28.0808 7.47694 28.3945 5.02582 28.5014 4.12399H29.1258C29.3002 4.12399 29.4416 3.93811 29.4416 3.70889V1.68938C29.4416 1.50541 29.3494 1.34336 29.2152 1.29122C23.35 -0.983153 18.8282 0.250173 16.655 1.18795C15.5723 1.6551 14.4277 1.65518 13.3449 1.18795C11.1717 0.250256 6.65024 -0.983236 0.784769 1.29122C0.6505 1.34328 0.558356 1.50541 0.558356 1.68938V3.70889C0.558356 3.93811 0.699762 4.12399 0.874135 4.12399H1.49856C1.60548 5.02582 1.91917 7.47694 2.40661 9.67535C2.44071 9.82911 2.48025 9.97937 2.52408 10.1266L0.0737616 13.9691C0.0144583 14.0621 -0.0109304 14.1847 0.00435335 14.3045C0.0197002 14.4242 0.0740773 14.5292 0.153338 14.5916C0.501579 14.8663 0.886071 15 1.26715 15C1.83934 15 2.40364 14.6982 2.82495 14.1188L3.97319 12.5395C4.4132 12.9397 4.91737 13.2264 5.46234 13.3706L5.51343 13.384C5.99209 13.508 6.47037 13.5678 6.94372 13.5678C9.70053 13.5676 12.2738 11.5351 13.572 8.30464L16.2467 7.81765C17.4744 11.3293 20.1636 13.5679 23.0563 13.5678C23.5294 13.5678 24.0081 13.5079 24.4866 13.384L24.531 13.3723C25.0785 13.2278 25.5847 12.9403 26.0264 12.5387L27.1751 14.1188C27.5964 14.6982 28.1607 14.9999 28.7329 14.9999C29.1139 14.9999 29.4985 14.8661 29.8467 14.5915C29.926 14.529 29.9804 14.4241 29.9956 14.3044C30.0109 14.1847 29.9855 14.0621 29.9262 13.9691ZM2.36834 13.5453C1.96149 14.1049 1.36631 14.2983 0.825442 14.0826L2.82937 10.9401C3.01164 11.3359 3.23149 11.6959 3.48272 12.0125L2.36834 13.5453ZM13.8877 7.40911C13.9431 7.22979 13.996 7.0484 14.0438 6.8631C14.2059 6.23382 14.349 5.67511 14.4563 5.25478C14.5347 4.94753 14.7533 4.74106 14.9999 4.74106C15.2466 4.74106 15.4651 4.94753 15.5436 5.25478C15.6509 5.67502 15.794 6.23374 15.9561 6.86302C15.9701 6.9174 15.9858 6.97053 16.0005 7.02441L13.8877 7.40911ZM24.4069 12.5584L24.3645 12.5695C21.0129 13.4378 17.6554 10.87 16.5543 6.59678C16.3925 5.96833 16.2496 5.41027 16.1424 4.99062C15.9775 4.34481 15.5184 3.91096 15 3.91096C14.4816 3.91096 14.0225 4.3449 13.8576 4.99062C13.7505 5.41027 13.6075 5.96833 13.4456 6.59678C12.3446 10.8701 8.98687 13.4378 5.63545 12.5695L5.58707 12.5568C4.35276 12.2302 3.36645 11.0371 3.01297 9.44307C2.41798 6.75991 2.08635 3.68216 2.08306 3.65136C2.06121 3.44639 1.92783 3.2938 1.77032 3.2938H1.18991V2.0012C6.7804 -0.0915328 11.0726 1.0811 13.148 1.97671C14.3596 2.49964 15.6405 2.49948 16.852 1.97671C18.9273 1.08127 23.2198 -0.0913667 28.81 2.0012V3.2938H28.2296C28.0722 3.2938 27.9387 3.4463 27.9169 3.65136C27.9136 3.68216 27.5825 6.75783 26.9871 9.44299C26.6334 11.0379 25.6446 12.2317 24.4069 12.5584ZM27.6317 13.5453L26.5168 12.0119C26.7681 11.6954 26.9881 11.3355 27.1704 10.9399L29.1746 14.0827C28.6338 14.2984 28.0384 14.1049 27.6317 13.5453Z" fill="#4D4F5C"/>
</svg>
