<svg width="30" height="30" viewBox="0 0 30 30" fill="none" xmlns="http://www.w3.org/2000/svg">
<path d="M23.5 17.5C23.6326 17.5 23.7598 17.4473 23.8536 17.3536C23.9473 17.2598 24 17.1326 24 17V16.5C24 16.3674 23.9473 16.2402 23.8536 16.1464C23.7598 16.0527 23.6326 16 23.5 16C23.3674 16 23.2402 16.0527 23.1464 16.1464C23.0527 16.2402 23 16.3674 23 16.5V17C23 17.1326 23.0527 17.2598 23.1464 17.3536C23.2402 17.4473 23.3674 17.5 23.5 17.5Z" fill="#4D4F5C"/>
<path d="M21.5 17.5C21.6326 17.5 21.7598 17.4473 21.8536 17.3536C21.9473 17.2598 22 17.1326 22 17V16.5C22 16.3674 21.9473 16.2402 21.8536 16.1464C21.7598 16.0527 21.6326 16 21.5 16C21.3674 16 21.2402 16.0527 21.1464 16.1464C21.0527 16.2402 21 16.3674 21 16.5V17C21 17.1326 21.0527 17.2598 21.1464 17.3536C21.2402 17.4473 21.3674 17.5 21.5 17.5Z" fill="#4D4F5C"/>
<path d="M23.1462 18.6466C22.9746 18.8177 22.7421 18.9139 22.4997 18.9139C22.2573 18.9139 22.0248 18.8177 21.8532 18.6466C21.7589 18.5555 21.6326 18.5051 21.5015 18.5062C21.3704 18.5074 21.245 18.56 21.1523 18.6527C21.0596 18.7454 21.007 18.8708 21.0059 19.0019C21.0047 19.133 21.0551 19.2593 21.1462 19.3536C21.5054 19.7122 21.9922 19.9137 22.4997 19.9137C23.0073 19.9137 23.4941 19.7122 23.8532 19.3536C23.9443 19.2593 23.9947 19.133 23.9936 19.0019C23.9924 18.8708 23.9398 18.7454 23.8471 18.6527C23.7544 18.56 23.629 18.5074 23.4979 18.5062C23.3668 18.5051 23.2405 18.5555 23.1462 18.6466Z" fill="#4D4F5C"/>
<path d="M26.5 22.5H25C24.8674 22.5 24.7402 22.4473 24.6464 22.3535C24.5527 22.2598 24.5 22.1326 24.5 22V21.37C24.9624 21.0475 25.3402 20.6182 25.6013 20.1186C25.8624 19.619 25.9992 19.0637 26 18.5C26.3975 18.4988 26.7783 18.3404 27.0593 18.0593C27.3404 17.7783 27.4988 17.3975 27.5 17V16.5C27.4993 16.2902 27.4544 16.083 27.3683 15.8917C27.2821 15.7005 27.1566 15.5295 27 15.39V13C27 12.337 26.7366 11.7011 26.2678 11.2322C25.7989 10.7634 25.163 10.5 24.5 10.5V9.72L25.285 10.14C25.5473 10.3159 25.8527 10.4168 26.1682 10.4318C26.4836 10.4468 26.7972 10.3753 27.075 10.225C27.3459 10.0795 27.5738 9.8654 27.7359 9.60414C27.8981 9.34287 27.9887 9.04361 27.9988 8.73629C28.009 8.42897 27.9382 8.12439 27.7936 7.85302C27.649 7.58165 27.4357 7.35301 27.175 7.19L14.24 0.0599999C14.1661 0.0206061 14.0837 0 14 0C13.9163 0 13.8338 0.0206061 13.76 0.0599999L0.789963 7.21C0.536057 7.37743 0.329948 7.6079 0.19179 7.87885C0.0536325 8.1498 -0.0118453 8.45197 0.00175944 8.75581C0.0153642 9.05965 0.107586 9.35476 0.269407 9.61228C0.431228 9.8698 0.657108 10.0809 0.924963 10.225C1.18374 10.3622 1.47206 10.4343 1.76496 10.435C2.08846 10.4379 2.40541 10.3439 2.67497 10.165L3.49997 9.72V20H2.74497C2.52033 19.9999 2.29853 20.0503 2.09596 20.1474C1.89339 20.2445 1.71522 20.3858 1.57459 20.561C1.43397 20.7362 1.33449 20.9407 1.28349 21.1595C1.2325 21.3783 1.23129 21.6057 1.27996 21.825L2.83997 28.825C2.91173 29.1585 3.09595 29.4573 3.36174 29.6712C3.62754 29.8851 3.95878 30.0012 4.29997 30H29.5C29.6326 30 29.7598 29.9473 29.8536 29.8535C29.9473 29.7598 30 29.6326 30 29.5V26C29.9989 25.0721 29.6299 24.1824 28.9737 23.5263C28.3176 22.8701 27.4279 22.5011 26.5 22.5ZM24.76 23.475C24.478 23.797 24.1306 24.055 23.7408 24.2318C23.351 24.4085 22.928 24.5 22.5 24.5C22.072 24.5 21.649 24.4085 21.2592 24.2318C20.8694 24.055 20.5219 23.797 20.24 23.475C20.5911 23.4191 20.9108 23.2399 21.1417 22.9696C21.3726 22.6993 21.4997 22.3555 21.5 22V21.855C22.1526 22.0483 22.8473 22.0483 23.5 21.855V22C23.5003 22.3555 23.6274 22.6993 23.8583 22.9696C24.0892 23.2399 24.4089 23.4191 24.76 23.475ZM25 18.5C25 19.163 24.7366 19.7989 24.2678 20.2678C23.7989 20.7366 23.163 21 22.5 21C21.8369 21 21.2011 20.7366 20.7322 20.2678C20.2634 19.7989 20 19.163 20 18.5L20.04 15C20.4341 14.9991 20.8227 14.9067 21.175 14.73L21.5 14.56L21.79 14.715C22.1486 14.9005 22.5462 14.9982 22.95 15H25V18.5ZM26.5 16.5V17C26.5 17.1326 26.4473 17.2598 26.3535 17.3535C26.2598 17.4473 26.1326 17.5 26 17.5V16C26.1326 16 26.2598 16.0527 26.3535 16.1464C26.4473 16.2402 26.5 16.3674 26.5 16.5ZM26 13V15C25.9992 14.735 25.8936 14.4811 25.7062 14.2938C25.5189 14.1064 25.265 14.0008 25 14H22.95C22.7082 13.9989 22.47 13.9407 22.255 13.83L21.735 13.555C21.6639 13.5182 21.585 13.499 21.505 13.499C21.4249 13.499 21.3461 13.5182 21.275 13.555L20.72 13.835C20.4973 13.9486 20.2499 14.0053 20 14C19.735 14.0008 19.4811 14.1064 19.2938 14.2938C19.1064 14.4811 19.0008 14.735 19 15V13C19.0008 12.735 19.1064 12.4811 19.2938 12.2938C19.4811 12.1064 19.735 12.0008 20 12H20.5C20.6326 12 20.7598 12.0527 20.8535 12.1464C20.9473 12.2402 21 12.3674 21 12.5C21 12.6326 21.0527 12.7598 21.1464 12.8535C21.2402 12.9473 21.3674 13 21.5 13C21.6326 13 21.7598 12.9473 21.8535 12.8535C21.9473 12.7598 22 12.6326 22 12.5V12C22 11.8674 22.0527 11.7402 22.1464 11.6464C22.2402 11.5527 22.3674 11.5 22.5 11.5H24.5C24.8975 11.5012 25.2783 11.6596 25.5593 11.9406C25.8404 12.2217 25.9988 12.6025 26 13ZM2.16496 9.31C2.0516 9.38531 1.91989 9.42835 1.78393 9.43452C1.64797 9.44069 1.5129 9.40974 1.39319 9.34501C1.27348 9.28027 1.17363 9.18418 1.10436 9.06703C1.03509 8.94988 0.999003 8.81609 0.999963 8.68C0.998193 8.56132 1.02498 8.44396 1.07806 8.33779C1.13114 8.23163 1.20896 8.13979 1.30496 8.07L14 1.07L26.66 8.05C26.769 8.12178 26.8576 8.2206 26.9171 8.3368C26.9766 8.45301 27.0049 8.58265 26.9994 8.71308C26.9938 8.84351 26.9546 8.97027 26.8855 9.08102C26.8164 9.19177 26.7197 9.28272 26.605 9.345C26.4774 9.41002 26.3344 9.43882 26.1916 9.42824C26.0488 9.41766 25.9116 9.36811 25.795 9.285L14.235 3.06C14.1629 3.02061 14.0821 2.99997 14 2.99997C13.9179 2.99997 13.837 3.02061 13.765 3.06L2.16496 9.31ZM4.29997 29C4.18659 29.0007 4.07642 28.9624 3.98806 28.8913C3.8997 28.8203 3.83856 28.7209 3.81497 28.61L2.25996 21.61C2.24272 21.5366 2.24231 21.4602 2.25876 21.3866C2.27522 21.313 2.3081 21.2441 2.35496 21.185C2.40254 21.1276 2.4621 21.0813 2.52947 21.0493C2.59685 21.0173 2.6704 21.0005 2.74497 21H13.7C13.8134 20.9992 13.9235 21.0376 14.0119 21.1087C14.1002 21.1797 14.1614 21.2791 14.185 21.39L15.875 29H4.29997ZM15.755 23.85L15.16 21.175C15.0882 20.8414 14.904 20.5427 14.6382 20.3288C14.3724 20.1149 14.0412 19.9988 13.7 20H4.49997V9.425C4.49883 9.35058 4.48178 9.27728 4.44997 9.21L14 4.07L23.5 9.18V10.5H22.5C22.2477 10.5001 21.9995 10.5639 21.7784 10.6853C21.5573 10.8068 21.3704 10.9821 21.235 11.195C21.0114 11.0665 20.7579 10.9993 20.5 11H20C19.4696 11 18.9608 11.2107 18.5858 11.5858C18.2107 11.9609 18 12.4696 18 13V15.39C17.8433 15.5295 17.7179 15.7005 17.6317 15.8917C17.5456 16.083 17.5007 16.2902 17.5 16.5V17C17.5012 17.3975 17.6596 17.7783 17.9406 18.0593C18.2217 18.3404 18.6025 18.4988 19 18.5C19.0008 19.0637 19.1375 19.619 19.3987 20.1186C19.6598 20.6182 20.0376 21.0475 20.5 21.37V22C20.5 22.1326 20.4473 22.2598 20.3535 22.3535C20.2598 22.4473 20.1326 22.5 20 22.5H18.5C17.9704 22.504 17.4485 22.6275 16.9732 22.8613C16.4979 23.095 16.0815 23.433 15.755 23.85ZM19 16V17.5C18.8674 17.5 18.7402 17.4473 18.6464 17.3535C18.5527 17.2598 18.5 17.1326 18.5 17V16.5C18.5 16.3674 18.5527 16.2402 18.6464 16.1464C18.7402 16.0527 18.8674 16 19 16ZM21 29H16.9L16.68 28H22C21.9992 28.265 21.8936 28.5189 21.7062 28.7062C21.5189 28.8936 21.265 28.9992 21 29ZM29 29H27V26.5C27 26.3674 26.9473 26.2402 26.8535 26.1464C26.7598 26.0527 26.6326 26 26.5 26C26.3674 26 26.2402 26.0527 26.1464 26.1464C26.0527 26.2402 26 26.3674 26 26.5V29H22.72C22.9019 28.698 22.9986 28.3525 23 28V27.5C23 27.3674 22.9473 27.2402 22.8535 27.1464C22.7598 27.0527 22.6326 27 22.5 27H16.455L16.09 25.355C16.2333 24.8247 16.5467 24.356 16.9821 24.0209C17.4174 23.6859 17.9506 23.5028 18.5 23.5H19.05C19.3979 24.1077 19.9002 24.6127 20.5061 24.9639C21.1119 25.3151 21.7997 25.5001 22.5 25.5001C23.2003 25.5001 23.8881 25.3151 24.4939 24.9639C25.0997 24.6127 25.602 24.1077 25.95 23.5H26.5C27.163 23.5 27.7989 23.7634 28.2678 24.2322C28.7366 24.7011 29 25.337 29 26V29Z" fill="#4D4F5C"/>
<path d="M9 26.5C8.70333 26.5 8.41332 26.412 8.16665 26.2472C7.91997 26.0824 7.72771 25.8481 7.61418 25.574C7.50065 25.2999 7.47094 24.9983 7.52882 24.7074C7.5867 24.4164 7.72956 24.1491 7.93934 23.9393C8.14912 23.7296 8.41639 23.5867 8.70737 23.5288C8.99834 23.4709 9.29994 23.5007 9.57403 23.6142C9.84812 23.7277 10.0824 23.92 10.2472 24.1666C10.412 24.4133 10.5 24.7033 10.5 25C10.5 25.3978 10.342 25.7794 10.0607 26.0607C9.77936 26.342 9.39783 26.5 9 26.5ZM9 24.5C8.90111 24.5 8.80444 24.5293 8.72222 24.5843C8.63999 24.6392 8.57591 24.7173 8.53806 24.8087C8.50022 24.9 8.49032 25.0006 8.50961 25.0975C8.5289 25.1945 8.57652 25.2836 8.64645 25.3536C8.71637 25.4235 8.80547 25.4711 8.90246 25.4904C8.99945 25.5097 9.09998 25.4998 9.19134 25.4619C9.28271 25.4241 9.3608 25.36 9.41574 25.2778C9.47068 25.1956 9.5 25.0989 9.5 25C9.5 24.8674 9.44733 24.7402 9.35356 24.6464C9.25979 24.5527 9.13261 24.5 9 24.5Z" fill="#4D4F5C"/>
<path d="M7 17H9.82351L12.1735 18.8895C12.2618 18.9606 12.3717 18.9995 12.485 19C12.6169 19 12.7435 18.9479 12.8372 18.855C12.9308 18.7621 12.984 18.6359 12.985 18.504L12.996 17H15C15.3978 17 15.7794 16.842 16.0607 16.5607C16.342 16.2794 16.5 15.8978 16.5 15.5V10.5C16.5 10.1022 16.342 9.72064 16.0607 9.43934C15.7794 9.15804 15.3978 9 15 9H7C6.60218 9 6.22065 9.15804 5.93934 9.43934C5.65804 9.72064 5.5 10.1022 5.5 10.5V15.5C5.5 15.8978 5.65804 16.2794 5.93934 16.5607C6.22065 16.842 6.60218 17 7 17ZM6.5 10.5C6.5 10.3674 6.55268 10.2402 6.64645 10.1464C6.74022 10.0527 6.86739 10 7 10H15C15.1326 10 15.2598 10.0527 15.3536 10.1464C15.4473 10.2402 15.5 10.3674 15.5 10.5V15.5C15.5 15.6326 15.4473 15.7598 15.3536 15.8536C15.2598 15.9473 15.1326 16 15 16H12.5C12.3681 16 12.2415 16.0521 12.1479 16.145C12.0542 16.2379 12.0011 16.3641 12 16.496L11.9925 17.462L10.3135 16.112C10.2249 16.04 10.1142 16.0004 10 16H7C6.86739 16 6.74022 15.9473 6.64645 15.8536C6.55268 15.7598 6.5 15.6326 6.5 15.5V10.5Z" fill="#4D4F5C"/>
<path d="M8 12H8.5C8.63261 12 8.75979 11.9473 8.85356 11.8536C8.94732 11.7598 9 11.6326 9 11.5C9 11.3674 8.94732 11.2402 8.85356 11.1464C8.75979 11.0527 8.63261 11 8.5 11H8C7.86739 11 7.74021 11.0527 7.64645 11.1464C7.55268 11.2402 7.5 11.3674 7.5 11.5C7.5 11.6326 7.55268 11.7598 7.64645 11.8536C7.74021 11.9473 7.86739 12 8 12Z" fill="#4D4F5C"/>
<path d="M10 12H14C14.1326 12 14.2598 11.9473 14.3536 11.8536C14.4473 11.7598 14.5 11.6326 14.5 11.5C14.5 11.3674 14.4473 11.2402 14.3536 11.1464C14.2598 11.0527 14.1326 11 14 11H10C9.86739 11 9.74021 11.0527 9.64645 11.1464C9.55268 11.2402 9.5 11.3674 9.5 11.5C9.5 11.6326 9.55268 11.7598 9.64645 11.8536C9.74021 11.9473 9.86739 12 10 12Z" fill="#4D4F5C"/>
<path d="M10 13.5H14C14.1326 13.5 14.2598 13.4473 14.3536 13.3536C14.4473 13.2598 14.5 13.1326 14.5 13C14.5 12.8674 14.4473 12.7402 14.3536 12.6464C14.2598 12.5527 14.1326 12.5 14 12.5H10C9.86739 12.5 9.74021 12.5527 9.64645 12.6464C9.55268 12.7402 9.5 12.8674 9.5 13C9.5 13.1326 9.55268 13.2598 9.64645 13.3536C9.74021 13.4473 9.86739 13.5 10 13.5Z" fill="#4D4F5C"/>
<path d="M8 13.5H8.5C8.63261 13.5 8.75979 13.4473 8.85356 13.3536C8.94732 13.2598 9 13.1326 9 13C9 12.8674 8.94732 12.7402 8.85356 12.6464C8.75979 12.5527 8.63261 12.5 8.5 12.5H8C7.86739 12.5 7.74021 12.5527 7.64645 12.6464C7.55268 12.7402 7.5 12.8674 7.5 13C7.5 13.1326 7.55268 13.2598 7.64645 13.3536C7.74021 13.4473 7.86739 13.5 8 13.5Z" fill="#4D4F5C"/>
<path d="M8 15H8.5C8.63261 15 8.75979 14.9473 8.85356 14.8536C8.94732 14.7598 9 14.6326 9 14.5C9 14.3674 8.94732 14.2402 8.85356 14.1464C8.75979 14.0527 8.63261 14 8.5 14H8C7.86739 14 7.74021 14.0527 7.64645 14.1464C7.55268 14.2402 7.5 14.3674 7.5 14.5C7.5 14.6326 7.55268 14.7598 7.64645 14.8536C7.74021 14.9473 7.86739 15 8 15Z" fill="#4D4F5C"/>
<path d="M10 15H14C14.1326 15 14.2598 14.9473 14.3536 14.8536C14.4473 14.7598 14.5 14.6326 14.5 14.5C14.5 14.3674 14.4473 14.2402 14.3536 14.1464C14.2598 14.0527 14.1326 14 14 14H10C9.86739 14 9.74021 14.0527 9.64645 14.1464C9.55268 14.2402 9.5 14.3674 9.5 14.5C9.5 14.6326 9.55268 14.7598 9.64645 14.8536C9.74021 14.9473 9.86739 15 10 15Z" fill="#4D4F5C"/>
</svg>
