<svg width="60" height="60" viewBox="0 0 60 60" fill="none" xmlns="http://www.w3.org/2000/svg">
<circle cx="30" cy="30" r="29.5" fill="#C4C4C4" stroke="white"/>
<path d="M41.3571 41.375H40.2857V18.2188C40.2857 17.5456 39.7101 17 39 17H21C20.2899 17 19.7143 17.5456 19.7143 18.2188V41.375H18.6429C18.2878 41.375 18 41.6478 18 41.9844V43H42V41.9844C42 41.6478 41.7122 41.375 41.3571 41.375ZM24.8571 20.8594C24.8571 20.5228 25.145 20.25 25.5 20.25H27.6429C27.9979 20.25 28.2857 20.5228 28.2857 20.8594V22.8906C28.2857 23.2272 27.9979 23.5 27.6429 23.5H25.5C25.145 23.5 24.8571 23.2272 24.8571 22.8906V20.8594ZM24.8571 25.7344C24.8571 25.3978 25.145 25.125 25.5 25.125H27.6429C27.9979 25.125 28.2857 25.3978 28.2857 25.7344V27.7656C28.2857 28.1022 27.9979 28.375 27.6429 28.375H25.5C25.145 28.375 24.8571 28.1022 24.8571 27.7656V25.7344ZM27.6429 33.25H25.5C25.145 33.25 24.8571 32.9772 24.8571 32.6406V30.6094C24.8571 30.2728 25.145 30 25.5 30H27.6429C27.9979 30 28.2857 30.2728 28.2857 30.6094V32.6406C28.2857 32.9772 27.9979 33.25 27.6429 33.25ZM31.7143 41.375H28.2857V37.1094C28.2857 36.7728 28.5736 36.5 28.9286 36.5H31.0714C31.4264 36.5 31.7143 36.7728 31.7143 37.1094V41.375ZM35.1429 32.6406C35.1429 32.9772 34.855 33.25 34.5 33.25H32.3571C32.0021 33.25 31.7143 32.9772 31.7143 32.6406V30.6094C31.7143 30.2728 32.0021 30 32.3571 30H34.5C34.855 30 35.1429 30.2728 35.1429 30.6094V32.6406ZM35.1429 27.7656C35.1429 28.1022 34.855 28.375 34.5 28.375H32.3571C32.0021 28.375 31.7143 28.1022 31.7143 27.7656V25.7344C31.7143 25.3978 32.0021 25.125 32.3571 25.125H34.5C34.855 25.125 35.1429 25.3978 35.1429 25.7344V27.7656ZM35.1429 22.8906C35.1429 23.2272 34.855 23.5 34.5 23.5H32.3571C32.0021 23.5 31.7143 23.2272 31.7143 22.8906V20.8594C31.7143 20.5228 32.0021 20.25 32.3571 20.25H34.5C34.855 20.25 35.1429 20.5228 35.1429 20.8594V22.8906Z" fill="#4D4F5C"/>
</svg>
