<svg width="302" height="182" viewBox="0 0 302 182" fill="none" xmlns="http://www.w3.org/2000/svg">
<path fill-rule="evenodd" clip-rule="evenodd" d="M161.869 34.745C164.173 32.0407 165.732 28.7264 165.472 25.0127C164.721 14.3125 149.826 16.6664 146.928 22.067C144.031 27.4675 144.375 41.1665 148.12 42.1317C149.613 42.5166 152.794 41.5737 156.032 39.6221L154 54H166L161.869 34.745Z" fill="#B28B67"/>
<path fill-rule="evenodd" clip-rule="evenodd" d="M141.612 14.5804C141.861 13.7069 142.529 12.959 143.43 12.7372C143.648 12.6834 143.874 12.6616 144.099 12.6707C144.179 12.6739 144.202 12.6971 144.239 12.6408C144.267 12.599 144.268 12.4968 144.28 12.4477C144.315 12.295 144.36 12.1441 144.415 11.9972C144.604 11.496 144.921 11.0525 145.302 10.6788C146.017 9.9798 146.982 9.49738 147.984 9.4101C148.533 9.36236 149.078 9.45151 149.596 9.63C149.865 9.7224 150.125 9.83746 150.379 9.96467C150.455 10.003 150.703 10.1905 150.78 10.1783C150.864 10.1649 151.034 9.95459 151.103 9.90179C151.954 9.24911 153.004 8.99249 154.064 9.00017C155.26 9.00917 156.412 9.06894 157.409 9.79802C157.62 9.95239 157.821 10.1214 158.013 10.2993C158.114 10.393 158.211 10.4902 158.305 10.5914C158.361 10.6525 158.415 10.715 158.468 10.7791C158.558 10.8879 158.543 10.9237 158.668 10.8478C159.148 10.5561 159.705 10.4197 160.265 10.4886C160.598 10.5295 160.921 10.6294 161.229 10.7608C161.333 10.8056 161.576 10.9841 161.687 10.9859C161.798 10.9876 162.037 10.8221 162.151 10.78C162.766 10.5528 163.43 10.4967 164.077 10.6017C164.744 10.7101 165.4 10.9764 165.966 11.3444C166.238 11.5214 166.475 11.7175 166.665 11.9808C166.748 12.0944 166.822 12.2146 166.915 12.32C166.97 12.3817 167.078 12.445 167.108 12.5231C167.09 12.4763 167.837 12.1882 167.908 12.1697C168.284 12.0716 168.666 12.0915 169.034 12.2126C169.726 12.4403 170.321 12.951 170.811 13.4745C171.062 13.7435 171.282 14.0407 171.468 14.3574C171.558 14.5091 171.639 14.6652 171.714 14.8245C171.75 14.9017 171.774 14.9983 171.822 15.0678C171.884 15.1574 171.925 15.1591 172.037 15.1982C172.603 15.3966 173.119 15.7324 173.512 16.1862C173.91 16.6453 174.168 17.2106 174.276 17.806C174.283 17.841 174.286 17.9864 174.307 18.0053C174.335 18.0315 174.449 18.0199 174.492 18.025C174.641 18.0425 174.789 18.0685 174.935 18.1031C175.205 18.1669 175.467 18.2607 175.715 18.3835C176.682 18.8619 177.374 19.7589 177.712 20.7682C178.067 21.8274 178.061 23.041 177.637 24.0804C177.568 24.2483 177.486 24.4113 177.391 24.5654C177.332 24.6601 177.313 24.6603 177.351 24.7596C177.394 24.87 177.471 24.9774 177.522 25.0853C177.687 25.4375 177.802 25.8111 177.875 26.1927C177.995 26.8186 178.054 27.4763 177.936 28.1069C177.881 28.3998 177.786 28.686 177.64 28.9469C177.566 29.0798 177.479 29.206 177.381 29.3226C177.33 29.3832 177.276 29.4411 177.22 29.4965C177.187 29.5281 177.145 29.5559 177.118 29.5912C177.05 29.6775 177.036 29.6066 177.071 29.7332C177.119 29.9102 177.229 30.0848 177.296 30.2571C177.365 30.4346 177.428 30.6146 177.485 30.7963C177.601 31.1642 177.699 31.5389 177.76 31.9199C177.878 32.6515 177.857 33.4311 177.511 34.1026C177.363 34.3898 177.151 34.6417 176.894 34.8377C176.768 34.9336 176.631 35.0162 176.488 35.0841C176.414 35.1191 176.32 35.134 176.287 35.2052C176.251 35.2817 176.304 35.4336 176.317 35.5192C176.423 36.2633 176.476 37.0446 176.255 37.7738C176.051 38.4455 175.603 39.0385 175.02 39.4311C173.891 40.1927 172.368 40.1498 171.181 39.5401C170.871 39.3811 170.582 39.1838 170.323 38.951C169.666 39.8362 168.313 39.8082 167.351 39.556C166.154 39.2417 165.193 38.4091 164.64 37.3152C163.883 38.2366 162.294 37.9377 161.769 36.938C161.641 36.6933 161.564 36.4237 161.527 36.1508C161.507 36.0073 161.52 35.8626 161.505 35.7202C161.486 35.5389 161.365 35.3626 161.295 35.1871C161.16 34.8456 161.075 34.4929 161.072 34.1245C161.07 33.9322 161.094 33.7448 161.112 33.554C161.129 33.3823 161.081 33.2223 161.054 33.0528C161.361 33.1033 161.735 33.0205 162.025 32.9315C162.309 32.8441 162.575 32.6139 162.775 32.4038C163.24 31.9157 163.525 31.2759 163.719 30.6391C164.146 29.2415 163.971 27.5646 162.565 26.7976C161.91 26.4403 159.948 26.4414 159.168 26.618C158.348 26.8037 157.418 28.6133 157.373 28.7834C157.344 28.8887 157.359 29.019 157.262 29.0891C157.049 29.2434 156.699 28.9757 156.542 28.8436C156.272 28.6156 156.079 28.3123 155.912 28.0048C155.547 27.335 155.254 26.6166 155.047 25.8833C154.887 25.3179 154.784 24.7349 154.575 24.184C154.368 23.6357 154.04 23.1457 153.53 22.8352C152.976 22.4973 152.34 22.3194 151.732 22.1071C151.128 21.8967 150.536 21.6395 150.068 21.193C149.965 21.0948 149.865 20.9905 149.783 20.8749C149.717 20.7837 149.653 20.609 149.553 20.5511C149.398 20.4611 149.173 20.6952 149.039 20.7802C148.379 21.1995 147.828 21.7843 147.383 22.4231C146.942 23.0585 146.579 23.6699 146.285 24.3794C146.066 24.9056 145.93 25.5795 145.545 26.0107C145.374 26.2032 144.099 26.3197 143.686 26.1516C143.272 25.9835 142.81 25.547 142.671 25.2735C142.529 24.9935 142.495 24.6859 142.556 24.3794C142.591 24.199 142.664 24.0306 142.704 23.8535C142.738 23.7047 142.768 23.5641 142.84 23.4278C142.978 23.1695 143.212 22.9838 143.495 22.9062C143.201 22.6349 142.957 22.3103 142.788 21.9474C142.613 21.5705 142.464 21.1121 142.422 20.6983C142.388 20.3623 142.441 20.0141 142.625 19.7253C142.818 19.4224 143.159 19.2248 143.455 19.0358C143.003 18.6823 142.617 18.2524 142.299 17.7764C141.681 16.8507 141.298 15.6839 141.612 14.5804Z" fill="#191847"/>
<path fill-rule="evenodd" clip-rule="evenodd" d="M199.5 116.5H142C137.582 116.5 134 120.082 134 124.5V170.5C134 174.918 137.582 178.5 142 178.5H199.5C203.918 178.5 207.5 174.918 207.5 170.5V124.5C207.5 120.082 203.918 116.5 199.5 116.5ZM191.5 130.5C192.605 130.5 193.5 131.395 193.5 132.5V162.5C193.5 163.605 192.605 164.5 191.5 164.5H150C148.895 164.5 148 163.605 148 162.5V132.5C148 131.395 148.895 130.5 150 130.5H191.5Z" fill="#C5CFD6"/>
<path fill-rule="evenodd" clip-rule="evenodd" d="M98.2443 176.829C104.651 162.65 109.284 150.303 111.143 143.789C114.328 132.635 116.75 122.82 117.362 119.155C118.822 110.415 106.131 109.906 104.454 114.25C101.915 120.824 97.4824 142.425 92.1566 175.052L98.2443 176.829ZM172.555 132.331C166.677 130.007 146.093 122.736 136.165 120.679C133.312 120.088 130.547 119.539 127.948 119.043C120.221 117.568 116.218 131.508 123.66 132.579C142.193 135.246 168.467 138 170.716 138.31C173.867 138.743 176.249 133.791 172.555 132.331Z" fill="#B28B67"/>
<path fill-rule="evenodd" clip-rule="evenodd" d="M123.206 115.208L155 99.0234V95.5H151.219C120.46 103.338 104.742 108.361 104.066 110.569C104.058 110.593 104.052 110.616 104.046 110.64C104.03 110.661 104.015 110.681 104 110.702C97.9042 119.085 94.2535 160.013 93.0553 163.078L104.736 164.821C109.204 148.252 123.5 136.709 123.12 116.864C123.223 116.282 123.249 115.73 123.206 115.208Z" fill="#00C299"/>
<path fill-rule="evenodd" clip-rule="evenodd" d="M152.358 124.82C155.267 124.238 157.946 123.718 160.239 123.316C175.045 120.719 179.363 112.793 176.81 95.5H149.529C145.073 96.7802 121.913 106.492 109.897 111.658C101.944 115.077 104.451 127.402 108.955 130.61C108.979 130.806 109.06 130.94 109.204 131C133.432 141.041 152.598 135.773 159 137.456L161.961 128.114L152.358 124.82Z" fill="#6ED09F"/>
<path fill-rule="evenodd" clip-rule="evenodd" d="M170.546 130.846C172.133 130.998 173.26 131.237 173.926 131.562C174.736 131.957 175.853 132.669 177.276 133.697C176.818 134.637 172.697 143.086 164.914 159.044C162.415 158.64 161.425 157.687 161.943 156.183C162.462 154.679 162.88 153.424 163.198 152.417L163.692 138.074C163.701 137.798 163.933 137.582 164.209 137.592C164.213 137.592 164.218 137.592 164.223 137.592L166.429 137.731C167.683 136.716 168.51 135.798 168.911 134.977C169.236 134.31 169.416 133.257 169.451 131.818L169.451 131.818C169.464 131.266 169.922 130.829 170.474 130.842C170.498 130.843 170.522 130.844 170.546 130.846Z" fill="#E4E4E4"/>
<path fill-rule="evenodd" clip-rule="evenodd" d="M101.161 174.201C101.72 175.694 102 176.812 102 177.553C102 178.454 101.85 179.77 101.549 181.5C100.503 181.5 91.1031 181.5 73.3485 181.5C72.6156 179.077 73.0387 177.769 74.6176 177.576C76.1965 177.383 77.5081 177.209 78.5525 177.053L91.66 171.209C91.9122 171.097 92.2078 171.21 92.3203 171.463C92.3222 171.467 92.3241 171.471 92.3259 171.476L93.1684 173.519C94.6301 174.201 95.8178 174.542 96.7317 174.542C97.4741 174.542 98.4995 174.242 99.8078 173.643L99.8078 173.643C100.31 173.413 100.903 173.633 101.134 174.135C101.143 174.157 101.153 174.179 101.161 174.201Z" fill="#E4E4E4"/>
<path fill-rule="evenodd" clip-rule="evenodd" d="M125.977 87.5605L111.813 101.378C107.692 103.136 104.315 105.077 101.683 107.201C101.091 107.915 100.447 109.283 103.232 108.671C106.017 108.059 108.974 107.54 109.497 108.446C110.021 109.352 108.478 110.74 109.446 111.925C110.091 112.715 112.26 110.202 115.953 104.384L130.682 95.7005L125.977 87.5605ZM188.845 89.5092L178.397 89.5503C184.848 110.377 188.331 121.428 188.845 122.702C190.002 125.569 187.554 129.936 186.507 132.283C189.917 133.809 189.554 128.158 193.855 130.159C197.782 131.986 200.769 135.295 205.305 132.496C205.863 132.152 206.474 130.857 204.997 129.844C201.318 127.322 196.017 122.907 195.3 121.453C194.324 119.472 192.172 108.824 188.845 89.5092Z" fill="#B28B67"/>
<path fill-rule="evenodd" clip-rule="evenodd" d="M159.152 45.666L154.828 44.9244C147.385 63.5195 134.389 80.4155 115.84 95.6125L129.856 112.641C148.402 91.0023 159.834 68.6774 159.152 45.666Z" fill="#288ECE"/>
<path fill-rule="evenodd" clip-rule="evenodd" d="M178 99.9999H139.5C148.42 78.3125 152.879 59.8893 152.879 44.7304L164.493 43C173.62 57.6792 176.198 75.7522 178 99.9999Z" fill="#DDE3E9"/>
<path fill-rule="evenodd" clip-rule="evenodd" d="M164.739 43.0082C164.737 43.0055 164.736 43.0027 164.734 43H163.976C163.069 43.0312 161.687 43.0875 159.831 43.1688L157.025 51.1884C156.728 60.9662 154.995 80.671 151.824 110.303H177.062C176.996 112.349 176.887 114.415 176.735 116.5H195.5C192.693 84.8319 182.442 60.332 164.748 43L164.739 43.0082V43.0082Z" fill="#288ECE"/>
<path fill-rule="evenodd" clip-rule="evenodd" d="M175.395 84.1152C174.677 96.8726 172.879 105.667 170 110.499H177.056C177.365 101.32 176.811 92.5256 175.395 84.1152V84.1152Z" fill="black" fill-opacity="0.1"/>
<path fill-rule="evenodd" clip-rule="evenodd" d="M171.445 95.0002L159.001 89.2148V95.0002H171.445Z" fill="white" fill-opacity="0.2"/>
<path d="M276.44 121.918H257.128C256.501 121.918 255.992 122.347 255.992 122.875V125.268C255.992 125.797 256.501 126.225 257.128 126.225H276.44C277.068 126.225 277.576 125.797 277.576 125.268V122.875C277.576 122.347 277.068 121.918 276.44 121.918Z" fill="#AFB9C5"/>
<path fill-rule="evenodd" clip-rule="evenodd" d="M261.671 108.039C264.11 101.379 265.476 94.3599 265.771 86.9805H267.351H268.364C268.659 94.3599 270.025 101.379 272.463 108.039H276.155C281.018 108.039 284.959 111.36 284.959 115.457C284.959 119.554 281.018 122.875 276.155 122.875H257.411C252.549 122.875 248.607 119.554 248.607 115.457C248.607 111.36 252.549 108.039 257.411 108.039H261.671Z" fill="#DDE3E9"/>
<path fill-rule="evenodd" clip-rule="evenodd" d="M246.69 53.8034C253.199 53.2678 259.708 53 266.216 53C272.725 53 279.234 53.2678 285.743 53.8034L288.368 91.8302C280.984 92.4259 273.6 92.7237 266.216 92.7237C258.832 92.7237 251.448 92.4259 244.064 91.8302L246.69 53.8034Z" fill="#C5CFD6"/>
<path fill-rule="evenodd" clip-rule="evenodd" d="M242.928 126.225H290.072H302V175.999H290.072V136.754H242.928V175.999H231V126.225H242.928Z" fill="#F2F2F2"/>
<path d="M20 40C31.0457 40 40 31.0457 40 20C40 8.95431 31.0457 0 20 0C8.95431 0 0 8.95431 0 20C0 31.0457 8.95431 40 20 40Z" fill="#F2F2F2"/>
<path d="M19.9993 5.28271C20.6245 5.28271 21.1313 4.77586 21.1313 4.15063C21.1313 3.5254 20.6245 3.01855 19.9993 3.01855C19.374 3.01855 18.8672 3.5254 18.8672 4.15063C18.8672 4.77586 19.374 5.28271 19.9993 5.28271Z" fill="black" fill-opacity="0.1"/>
<path d="M4.15161 21.1323C4.77683 21.1323 5.28368 20.6255 5.28368 20.0002C5.28368 19.375 4.77683 18.8682 4.15161 18.8682C3.52638 18.8682 3.01953 19.375 3.01953 20.0002C3.01953 20.6255 3.52638 21.1323 4.15161 21.1323Z" fill="black" fill-opacity="0.1"/>
<path d="M35.8489 21.1323C36.4741 21.1323 36.9809 20.6255 36.9809 20.0002C36.9809 19.375 36.4741 18.8682 35.8489 18.8682C35.2236 18.8682 34.7168 19.375 34.7168 20.0002C34.7168 20.6255 35.2236 21.1323 35.8489 21.1323Z" fill="black" fill-opacity="0.1"/>
<path d="M19.9993 36.9809C20.6245 36.9809 21.1313 36.4741 21.1313 35.8489C21.1313 35.2236 20.6245 34.7168 19.9993 34.7168C19.374 34.7168 18.8672 35.2236 18.8672 35.8489C18.8672 36.4741 19.374 36.9809 19.9993 36.9809Z" fill="black" fill-opacity="0.1"/>
<path fill-rule="evenodd" clip-rule="evenodd" d="M19.9989 6.41504L20.7536 19.6226H19.2441L19.9989 6.41504Z" fill="#AFB9C5"/>
<path fill-rule="evenodd" clip-rule="evenodd" d="M26.6773 26.6792L19.7396 20.8089L20.807 19.7415L26.6773 26.6792Z" fill="#AFB9C5"/>
<path d="M19.9997 21.5091C20.8333 21.5091 21.5091 20.8333 21.5091 19.9997C21.5091 19.166 20.8333 18.4902 19.9997 18.4902C19.166 18.4902 18.4902 19.166 18.4902 19.9997C18.4902 20.8333 19.166 21.5091 19.9997 21.5091Z" fill="#C5CFD6"/>
</svg>
